<svg width="120" height="120" viewBox="0 0 120 120" fill="none" xmlns="http://www.w3.org/2000/svg">
<circle cx="60" cy="60" r="60" fill="white"/>
<circle opacity="0.6" cx="60" cy="60" r="49" fill="#DEDEFF" fill-opacity="0.4" stroke="#3035C4" stroke-width="2"/>
<path d="M79.6626 74.8473C80.1985 74.1066 80.5156 73.1978 80.5156 72.2158V66.3477C80.5156 65.8083 80.0783 65.3711 79.5391 65.3711H75.1746C73.157 65.3711 71.5156 67.0125 71.5156 69.0301V72.2158C71.5156 73.1972 71.8323 74.1054 72.3676 74.8458C71.7 74.9541 71.0577 75.168 70.4587 75.4811C69.1019 73.4564 66.8789 72.0602 64.3244 71.8246C64.3145 71.8218 64.3043 71.8197 64.2942 71.8173C65.2082 70.7967 65.7653 69.4502 65.7653 67.9756V60C65.7653 59.4606 65.328 59.0234 64.7888 59.0234H58.8569C56.3082 59.0234 54.2347 61.097 54.2347 63.6457V67.9755C54.2347 69.4501 54.7918 70.7966 55.7058 71.8172C55.6957 71.8196 55.6855 71.8218 55.6756 71.8245C53.1208 72.0601 50.8978 73.4565 49.541 75.4814C48.9418 75.1685 48.2994 74.9544 47.6321 74.8461C48.1675 74.1057 48.4844 73.1973 48.4844 72.2158V66.3477C48.4844 65.8083 48.0471 65.3711 47.5078 65.3711H43.1434C41.1258 65.3711 39.4844 67.0125 39.4844 69.0301V72.2158C39.4844 73.1979 39.8015 74.1066 40.3374 74.8473C37.3146 75.3413 35 77.9701 35 81.1304V84.0234C35 84.5628 35.4373 85 35.9766 85H84.0234C84.5627 85 85 84.5628 85 84.0234V81.1304C85 77.9701 82.6854 75.3413 79.6626 74.8473ZM41.4375 69.0301C41.4375 68.0895 42.2027 67.3242 43.1434 67.3242H46.5312V68.5136C46.5312 69.0968 46.0568 69.5712 45.4737 69.5712H41.4375V69.0301ZM41.4375 71.5242H45.4737C45.8458 71.5242 46.2021 71.456 46.5312 71.3319V72.2158C46.5312 73.6201 45.3888 74.7627 43.9844 74.7627C42.58 74.7627 41.4375 73.6201 41.4375 72.2158V71.5242ZM44.614 76.7158L43.9844 77.3454L43.3548 76.7158H44.614ZM48.1398 80.0914V83.0469H36.9531V81.1304C36.9531 78.94 38.5569 77.118 40.6517 76.7748L43.2938 79.417C43.4771 79.6001 43.7254 79.703 43.9844 79.703C44.2434 79.703 44.4917 79.6001 44.6749 79.417L47.3179 76.7739C47.7847 76.8499 48.2336 77.0004 48.652 77.2205C48.3211 78.1156 48.1398 79.0827 48.1398 80.0914ZM60.0001 71.7878C57.898 71.7878 56.1879 70.0776 56.1879 67.9756V66.6849H62.0242C62.6714 66.6849 63.2808 66.5195 63.8123 66.2291V67.9756C63.8123 70.0776 62.1021 71.7878 60.0001 71.7878ZM61.7023 73.7408L60 75.4432L58.2977 73.7408H61.7023ZM56.1877 63.6457H56.1878C56.1878 62.1739 57.3852 60.9766 58.8569 60.9766H63.8122V62.9438C63.8122 63.9297 63.0101 64.7318 62.0241 64.7318H56.1877V63.6457ZM69.9069 83.0469H68.0078H51.9922H50.0931V81.0938H56.4519C56.9911 81.0938 57.4284 80.6565 57.4284 80.1172C57.4284 79.5778 56.9911 79.1406 56.4519 79.1406H50.1645C50.583 76.3651 52.8047 74.1742 55.594 73.7993L59.3095 77.5147C59.5002 77.7055 59.7501 77.8008 60 77.8008C60.2499 77.8008 60.4998 77.7055 60.6905 77.5147L64.406 73.7993C67.5071 74.2161 69.9069 76.8779 69.9069 80.0914V83.0469ZM73.4688 69.0301C73.4688 68.0895 74.234 67.3242 75.1746 67.3242H78.5625V68.5136C78.5625 69.0968 78.0881 69.5712 77.505 69.5712H73.4688V69.0301ZM73.4688 71.5242H77.505C77.8771 71.5242 78.2333 71.456 78.5625 71.3319V72.2158C78.5625 73.6201 77.42 74.7627 76.0156 74.7627C74.6112 74.7627 73.4688 73.6201 73.4688 72.2158V71.5242ZM76.6452 76.7158L76.0156 77.3454L75.386 76.7158H76.6452ZM71.8601 83.0469V80.0914C71.8601 79.0826 71.6788 78.1155 71.3479 77.2203C71.766 77 72.2148 76.8496 72.6817 76.7737L75.325 79.417C75.5082 79.6001 75.7565 79.703 76.0155 79.703C76.2745 79.703 76.5229 79.6001 76.7061 79.417L79.3482 76.7748C81.443 77.1181 83.0468 78.94 83.0468 81.1304V83.0469H71.8601Z" fill="#3035C4"/>
<path d="M64.8129 41.3807C64.4315 40.9994 63.8133 40.9994 63.4318 41.3807L58.6398 46.1728L56.5682 44.1012C56.1867 43.7198 55.5686 43.7198 55.1871 44.1011C54.8058 44.4825 54.8058 45.1009 55.1871 45.4823L57.9492 48.2444C58.1324 48.4275 58.3808 48.5304 58.6398 48.5304C58.8987 48.5304 59.1471 48.4275 59.3303 48.2444L64.8129 42.7618C65.1943 42.3804 65.1943 41.7621 64.8129 41.3807Z" fill="#E6514A"/>
<path d="M63.993 35.8471C63.5005 35.6275 62.9231 35.8487 62.7034 36.3412C62.4836 36.8338 62.7049 37.4113 63.1975 37.6309C66.0294 38.8939 67.8593 41.7129 67.8593 44.8127C67.8593 49.1463 64.3336 52.672 60 52.672C55.6664 52.672 52.1408 49.1463 52.1408 44.8127C52.1408 41.7289 53.9575 38.9158 56.769 37.6459C57.2605 37.424 57.479 36.8454 57.257 36.3539C57.035 35.8623 56.4562 35.6439 55.9651 35.8659C52.4555 37.451 50.1877 40.9628 50.1877 44.8126C50.1876 50.2233 54.5895 54.6251 60 54.6251C65.4106 54.6251 69.8124 50.2233 69.8124 44.8127C69.8124 40.9429 67.5282 37.4237 63.993 35.8471Z" fill="#E6514A"/>
<path d="M60.035 35H60C59.4607 35 59.0234 35.4372 59.0234 35.9766C59.0234 36.5159 59.4607 36.9531 60 36.9531H60.0258C60.0273 36.9531 60.0288 36.9531 60.0305 36.9531C60.5677 36.9531 61.0044 36.5189 61.0069 35.9812C61.0095 35.4418 60.5743 35.0025 60.035 35Z" fill="#3035C4"/>
<path d="M60.6903 79.4268C60.5088 79.2451 60.2568 79.1406 60 79.1406C59.7432 79.1406 59.4912 79.2451 59.3096 79.4268C59.1279 79.6084 59.0234 79.8604 59.0234 80.1172C59.0234 80.374 59.1278 80.626 59.3096 80.8076C59.4913 80.9893 59.7432 81.0938 60 81.0938C60.2568 81.0938 60.5088 80.9893 60.6903 80.8076C60.872 80.626 60.9766 80.374 60.9766 80.1172C60.9766 79.8604 60.8721 79.6084 60.6903 79.4268Z" fill="#3035C4"/>
</svg>
