<svg width="168" height="168" viewBox="0 0 168 168" fill="none" xmlns="http://www.w3.org/2000/svg">
<g filter="url(#filter0_d_2119:934)">
<circle cx="84" cy="74" r="60" fill="white"/>
</g>
<circle opacity="0.6" cx="84" cy="74" r="49" fill="#DEDEFF" fill-opacity="0.4" stroke="#3035C4" stroke-width="2"/>
<path d="M103.663 88.8473C104.199 88.1066 104.516 87.1978 104.516 86.2158V80.3477C104.516 79.8083 104.078 79.3711 103.539 79.3711H99.1746C97.157 79.3711 95.5156 81.0125 95.5156 83.0301V86.2158C95.5156 87.1972 95.8323 88.1054 96.3676 88.8458C95.7 88.9541 95.0577 89.168 94.4587 89.4811C93.1019 87.4564 90.8789 86.0602 88.3244 85.8246C88.3145 85.8218 88.3043 85.8197 88.2942 85.8173C89.2082 84.7967 89.7653 83.4502 89.7653 81.9756V74C89.7653 73.4606 89.328 73.0234 88.7888 73.0234H82.8569C80.3082 73.0234 78.2347 75.097 78.2347 77.6457V81.9755C78.2347 83.4501 78.7918 84.7966 79.7058 85.8172C79.6957 85.8196 79.6855 85.8218 79.6756 85.8245C77.1208 86.0601 74.8978 87.4565 73.541 89.4814C72.9418 89.1685 72.2994 88.9544 71.6321 88.8461C72.1675 88.1057 72.4844 87.1973 72.4844 86.2158V80.3477C72.4844 79.8083 72.0471 79.3711 71.5078 79.3711H67.1434C65.1258 79.3711 63.4844 81.0125 63.4844 83.0301V86.2158C63.4844 87.1979 63.8015 88.1066 64.3374 88.8473C61.3146 89.3413 59 91.9701 59 95.1304V98.0234C59 98.5628 59.4373 99 59.9766 99H108.023C108.563 99 109 98.5628 109 98.0234V95.1304C109 91.9701 106.685 89.3413 103.663 88.8473ZM65.4375 83.0301C65.4375 82.0895 66.2027 81.3242 67.1434 81.3242H70.5312V82.5136C70.5312 83.0968 70.0568 83.5712 69.4737 83.5712H65.4375V83.0301ZM65.4375 85.5242H69.4737C69.8458 85.5242 70.2021 85.456 70.5312 85.3319V86.2158C70.5312 87.6201 69.3888 88.7627 67.9844 88.7627C66.58 88.7627 65.4375 87.6201 65.4375 86.2158V85.5242ZM68.614 90.7158L67.9844 91.3454L67.3548 90.7158H68.614ZM72.1398 94.0914V97.0469H60.9531V95.1304C60.9531 92.94 62.5569 91.118 64.6517 90.7748L67.2938 93.417C67.4771 93.6001 67.7254 93.703 67.9844 93.703C68.2434 93.703 68.4917 93.6001 68.6749 93.417L71.3179 90.7739C71.7847 90.8499 72.2336 91.0004 72.652 91.2205C72.3211 92.1156 72.1398 93.0827 72.1398 94.0914ZM84.0001 85.7878C81.898 85.7878 80.1879 84.0776 80.1879 81.9756V80.6849H86.0242C86.6714 80.6849 87.2808 80.5195 87.8123 80.2291V81.9756C87.8123 84.0776 86.1021 85.7878 84.0001 85.7878ZM85.7023 87.7408L84 89.4432L82.2977 87.7408H85.7023ZM80.1877 77.6457H80.1878C80.1878 76.1739 81.3852 74.9766 82.8569 74.9766H87.8122V76.9438C87.8122 77.9297 87.0101 78.7318 86.0241 78.7318H80.1877V77.6457ZM93.9069 97.0469H92.0078H75.9922H74.0931V95.0938H80.4519C80.9911 95.0938 81.4284 94.6565 81.4284 94.1172C81.4284 93.5778 80.9911 93.1406 80.4519 93.1406H74.1645C74.583 90.3651 76.8047 88.1742 79.594 87.7993L83.3095 91.5147C83.5002 91.7055 83.7501 91.8008 84 91.8008C84.2499 91.8008 84.4998 91.7055 84.6905 91.5147L88.406 87.7993C91.5071 88.2161 93.9069 90.8779 93.9069 94.0914V97.0469ZM97.4688 83.0301C97.4688 82.0895 98.234 81.3242 99.1746 81.3242H102.562V82.5136C102.562 83.0968 102.088 83.5712 101.505 83.5712H97.4688V83.0301ZM97.4688 85.5242H101.505C101.877 85.5242 102.233 85.456 102.562 85.3319V86.2158C102.562 87.6201 101.42 88.7627 100.016 88.7627C98.6112 88.7627 97.4688 87.6201 97.4688 86.2158V85.5242ZM100.645 90.7158L100.016 91.3454L99.386 90.7158H100.645ZM95.8601 97.0469V94.0914C95.8601 93.0826 95.6788 92.1155 95.3479 91.2203C95.766 91 96.2148 90.8496 96.6817 90.7737L99.325 93.417C99.5082 93.6001 99.7565 93.703 100.016 93.703C100.275 93.703 100.523 93.6001 100.706 93.417L103.348 90.7748C105.443 91.1181 107.047 92.94 107.047 95.1304V97.0469H95.8601Z" fill="#3035C4"/>
<path d="M88.8129 55.3807C88.4315 54.9994 87.8133 54.9994 87.4318 55.3807L82.6398 60.1728L80.5682 58.1012C80.1867 57.7198 79.5686 57.7198 79.1871 58.1011C78.8058 58.4825 78.8058 59.1009 79.1871 59.4823L81.9492 62.2444C82.1324 62.4275 82.3808 62.5304 82.6398 62.5304C82.8987 62.5304 83.1471 62.4275 83.3303 62.2444L88.8129 56.7618C89.1943 56.3804 89.1943 55.7621 88.8129 55.3807Z" fill="#E6514A"/>
<path d="M87.993 49.8471C87.5005 49.6275 86.9231 49.8487 86.7034 50.3412C86.4836 50.8338 86.7049 51.4113 87.1975 51.6309C90.0294 52.8939 91.8593 55.7129 91.8593 58.8127C91.8593 63.1463 88.3336 66.672 84 66.672C79.6664 66.672 76.1408 63.1463 76.1408 58.8127C76.1408 55.7289 77.9575 52.9158 80.769 51.6459C81.2605 51.424 81.479 50.8454 81.257 50.3539C81.035 49.8623 80.4562 49.6439 79.9651 49.8659C76.4555 51.451 74.1877 54.9628 74.1877 58.8126C74.1876 64.2233 78.5895 68.6251 84 68.6251C89.4106 68.6251 93.8124 64.2233 93.8124 58.8127C93.8124 54.9429 91.5282 51.4237 87.993 49.8471Z" fill="#E6514A"/>
<path d="M84.035 49H84C83.4607 49 83.0234 49.4372 83.0234 49.9766C83.0234 50.5159 83.4607 50.9531 84 50.9531H84.0258C84.0273 50.9531 84.0288 50.9531 84.0305 50.9531C84.5677 50.9531 85.0044 50.5189 85.0069 49.9812C85.0095 49.4418 84.5743 49.0025 84.035 49Z" fill="#3035C4"/>
<path d="M84.6903 93.4268C84.5088 93.2451 84.2568 93.1406 84 93.1406C83.7432 93.1406 83.4912 93.2451 83.3096 93.4268C83.1279 93.6084 83.0234 93.8604 83.0234 94.1172C83.0234 94.374 83.1278 94.626 83.3096 94.8076C83.4913 94.9893 83.7432 95.0938 84 95.0938C84.2568 95.0938 84.5088 94.9893 84.6903 94.8076C84.872 94.626 84.9766 94.374 84.9766 94.1172C84.9766 93.8604 84.8721 93.6084 84.6903 93.4268Z" fill="#3035C4"/>
<defs>
<filter id="filter0_d_2119:934" x="0" y="0" width="168" height="168" filterUnits="userSpaceOnUse" color-interpolation-filters="sRGB">
<feFlood flood-opacity="0" result="BackgroundImageFix"/>
<feColorMatrix in="SourceAlpha" type="matrix" values="0 0 0 0 0 0 0 0 0 0 0 0 0 0 0 0 0 0 127 0" result="hardAlpha"/>
<feOffset dy="10"/>
<feGaussianBlur stdDeviation="12"/>
<feColorMatrix type="matrix" values="0 0 0 0 0.286753 0 0 0 0 0.37354 0 0 0 0 0.829167 0 0 0 0.12 0"/>
<feBlend mode="normal" in2="BackgroundImageFix" result="effect1_dropShadow_2119:934"/>
<feBlend mode="normal" in="SourceGraphic" in2="effect1_dropShadow_2119:934" result="shape"/>
</filter>
</defs>
</svg>
