<svg width="168" height="168" viewBox="0 0 168 168" fill="none" xmlns="http://www.w3.org/2000/svg">
<g filter="url(#filter0_d_2119:953)">
<circle cx="84" cy="74" r="60" fill="white"/>
</g>
<circle opacity="0.6" cx="84" cy="74" r="49" fill="#DEDEFF" fill-opacity="0.4" stroke="#3035C4" stroke-width="2"/>
<g clip-path="url(#clip0_2119:953)">
<path d="M91.0296 53.9663H75.8154C75.4108 53.9663 75.0829 54.2941 75.0829 54.6987C75.0829 55.1033 75.4108 55.4312 75.8154 55.4312H91.0296C91.4342 55.4312 91.762 55.1033 91.762 54.6987C91.762 54.2941 91.4342 53.9663 91.0296 53.9663Z" fill="#E6514A"/>
<path fill-rule="evenodd" clip-rule="evenodd" d="M74.8329 54.6987C74.8329 54.1561 75.2727 53.7163 75.8154 53.7163H91.0296C91.5723 53.7163 92.012 54.1561 92.012 54.6987C92.012 55.2414 91.5723 55.6812 91.0296 55.6812H75.8154C75.2727 55.6812 74.8329 55.2414 74.8329 54.6987ZM75.8154 54.2163C75.5488 54.2163 75.3329 54.4322 75.3329 54.6987C75.3329 54.9652 75.5488 55.1812 75.8154 55.1812H91.0296C91.2961 55.1812 91.512 54.9652 91.512 54.6987C91.512 54.4322 91.2961 54.2163 91.0296 54.2163H75.8154Z" fill="#E6514A"/>
<path d="M91.0296 58.2534H75.8154C75.4108 58.2534 75.0829 58.5813 75.0829 58.9858C75.0829 59.3904 75.4108 59.7183 75.8154 59.7183H91.0296C91.4342 59.7183 91.762 59.3904 91.762 58.9858C91.762 58.5813 91.4342 58.2534 91.0296 58.2534Z" fill="#E6514A"/>
<path fill-rule="evenodd" clip-rule="evenodd" d="M74.8329 58.9858C74.8329 58.4432 75.2727 58.0034 75.8154 58.0034H91.0296C91.5723 58.0034 92.012 58.4432 92.012 58.9858C92.012 59.5285 91.5723 59.9683 91.0296 59.9683H75.8154C75.2727 59.9683 74.8329 59.5285 74.8329 58.9858ZM75.8154 58.5034C75.5488 58.5034 75.3329 58.7193 75.3329 58.9858C75.3329 59.2524 75.5488 59.4683 75.8154 59.4683H91.0296C91.2961 59.4683 91.512 59.2524 91.512 58.9858C91.512 58.7193 91.2961 58.5034 91.0296 58.5034H75.8154Z" fill="#E6514A"/>
<path d="M105.047 74.3305H100.699V72.2857C100.699 69.5908 98.5068 67.3984 95.8118 67.3984H87.5775C84.8825 67.3984 82.6901 69.5908 82.6901 72.2857V74.3305H78.3419C76.155 74.3305 74.3893 76.1036 74.3893 78.2831V95.0334C74.3893 97.2128 76.1624 98.986 78.3419 98.986H105.047C107.227 98.986 109 97.2129 109 95.0334V91.8596C109 91.455 108.672 91.1271 108.268 91.1271C107.863 91.1271 107.535 91.455 107.535 91.8596V95.0334C107.535 96.4052 106.419 97.5212 105.047 97.5212H78.3419C76.9701 97.5212 75.8541 96.4052 75.8541 95.0334V84.6527C77.0083 86.0759 78.7447 87.0087 80.6972 87.085V88.2032C80.6972 89.6791 81.898 90.8799 83.3739 90.8799C84.8497 90.8799 86.0505 89.6791 86.0505 88.2032V87.09H97.3388V88.2032C97.3388 89.6791 98.5396 90.8799 100.015 90.8799C101.491 90.8799 102.692 89.6791 102.692 88.2032V87.085C104.645 87.0087 106.381 86.0759 107.535 84.6527V88.4354C107.535 88.84 107.863 89.1679 108.268 89.1679C108.672 89.1679 109 88.84 109 88.4354V78.2829C109 76.1042 107.235 74.3305 105.047 74.3305ZM84.1549 72.2857C84.1549 70.3986 85.6903 68.8633 87.5775 68.8633H95.8118C97.699 68.8633 99.2344 70.3986 99.2344 72.2857V74.3305H97.7091V72.2857C97.7091 71.2397 96.858 70.3887 95.8118 70.3887H87.5775C86.5314 70.3887 85.6803 71.2397 85.6803 72.2857V74.3305H84.1549V72.2857ZM87.1451 74.3305V72.2857C87.1451 72.0475 87.339 71.8535 87.5775 71.8535H95.8118C96.0502 71.8535 96.2443 72.0474 96.2443 72.2857V74.3305H87.1451ZM84.5857 88.2032C84.5857 88.8715 84.0421 89.415 83.3739 89.415C82.7056 89.415 82.162 88.8715 82.162 88.2032V85.585C82.162 84.9167 82.7056 84.3731 83.3739 84.3731C84.0421 84.3731 84.5857 84.9167 84.5857 85.585V88.2032ZM101.227 88.2032C101.227 88.8715 100.684 89.415 100.015 89.415C99.3472 89.415 98.8036 88.8715 98.8036 88.2032V86.3651C98.8036 86.3626 98.8037 86.3601 98.8037 86.3576C98.8037 86.3552 98.8036 86.3525 98.8036 86.3501V85.5851C98.8036 84.9168 99.3472 84.3732 100.015 84.3732C100.684 84.3732 101.227 84.9168 101.227 85.5851V88.2032ZM102.692 85.6186V85.5851C102.692 84.1092 101.491 82.9084 100.015 82.9084C98.5396 82.9084 97.3388 84.1092 97.3388 85.5851V85.6252H86.0505V85.5851C86.0505 84.1092 84.8497 82.9084 83.3739 82.9084C81.898 82.9084 80.6972 84.1092 80.6972 85.5851V85.6186C78.0037 85.483 75.8541 83.2491 75.8541 80.5226V78.2829C75.8541 76.9092 76.9675 75.7952 78.3419 75.7952H105.047C106.418 75.7952 107.535 76.9057 107.535 78.283V80.5226C107.535 83.2491 105.386 85.483 102.692 85.6186Z" fill="#3035C4"/>
<path d="M73.445 97.5208H62.622C61.4325 97.5208 60.4648 96.5531 60.4648 95.3637V60.1827C60.4648 60.0246 60.4817 59.8691 60.5147 59.7183H67.1803C68.572 59.7183 69.7042 58.586 69.7042 57.1944V50.5289C69.8551 50.496 70.0105 50.479 70.1687 50.479H95.0015C96.1909 50.479 97.1586 51.4467 97.1586 52.6361V65.2027C97.1586 65.6073 97.4864 65.9352 97.891 65.9352C98.2956 65.9352 98.6234 65.6073 98.6234 65.2027V52.6361C98.6234 50.639 96.9986 49.0142 95.0015 49.0142H70.1686C69.2011 49.0142 68.2914 49.3908 67.6073 50.0749L60.0607 57.6216C59.3767 58.3057 59 59.2152 59 60.1827V95.3637C59 97.3608 60.6248 98.9856 62.622 98.9856H73.445C73.8496 98.9856 74.1774 98.6578 74.1774 98.2532C74.1774 97.8486 73.8496 97.5208 73.445 97.5208ZM68.2393 51.5148V57.1944C68.2393 57.7783 67.7642 58.2534 67.1802 58.2534H61.5007L68.2393 51.5148Z" fill="#3035C4"/>
<path fill-rule="evenodd" clip-rule="evenodd" d="M67.4305 49.8981C68.1615 49.1671 69.1348 48.7642 70.1686 48.7642H95.0015C97.1367 48.7642 98.8734 50.5009 98.8734 52.6361V65.2027C98.8734 65.7454 98.4337 66.1852 97.891 66.1852C97.3484 66.1852 96.9086 65.7454 96.9086 65.2027V52.6361C96.9086 51.5848 96.0528 50.729 95.0015 50.729H70.1687C70.0964 50.729 70.0249 50.733 69.9542 50.7409V57.1944C69.9542 58.7241 68.71 59.9683 67.1803 59.9683H60.7267C60.7188 60.0389 60.7148 60.1104 60.7148 60.1827V95.3637C60.7148 96.4151 61.5706 97.2708 62.622 97.2708H73.445C73.9877 97.2708 74.4274 97.7106 74.4274 98.2532C74.4274 98.7959 73.9877 99.2356 73.445 99.2356H62.622C60.4867 99.2356 58.75 97.4989 58.75 95.3637V60.1827C58.75 59.1489 59.153 58.1758 59.884 57.4448L67.4305 49.8981ZM70.1686 49.2642C69.2674 49.2642 68.4213 49.6145 67.7841 50.2517L60.2375 57.7984C59.6003 58.4355 59.25 59.2815 59.25 60.1827V95.3637C59.25 97.2228 60.7629 98.7356 62.622 98.7356H73.445C73.7115 98.7356 73.9274 98.5197 73.9274 98.2532C73.9274 97.9867 73.7115 97.7708 73.445 97.7708H62.622C61.2944 97.7708 60.2148 96.6912 60.2148 95.3637V60.1827C60.2148 60.0068 60.2336 59.8334 60.2705 59.6648L60.3135 59.4683H67.1803C68.4339 59.4683 69.4542 58.448 69.4542 57.1944V50.3276L69.6509 50.2846C69.8193 50.2479 69.9926 50.229 70.1687 50.229H95.0015C96.329 50.229 97.4086 51.3086 97.4086 52.6361V65.2027C97.4086 65.4693 97.6245 65.6852 97.891 65.6852C98.1575 65.6852 98.3734 65.4693 98.3734 65.2027V52.6361C98.3734 50.777 96.8606 49.2642 95.0015 49.2642H70.1686ZM68.4893 50.9113V57.1944C68.4893 57.9164 67.9022 58.5034 67.1802 58.5034H60.8971L68.4893 50.9113ZM62.1042 58.0034H67.1802C67.6261 58.0034 67.9893 57.6402 67.9893 57.1944V52.1184L62.1042 58.0034Z" fill="#3035C4"/>
</g>
<defs>
<filter id="filter0_d_2119:953" x="0" y="0" width="168" height="168" filterUnits="userSpaceOnUse" color-interpolation-filters="sRGB">
<feFlood flood-opacity="0" result="BackgroundImageFix"/>
<feColorMatrix in="SourceAlpha" type="matrix" values="0 0 0 0 0 0 0 0 0 0 0 0 0 0 0 0 0 0 127 0" result="hardAlpha"/>
<feOffset dy="10"/>
<feGaussianBlur stdDeviation="12"/>
<feColorMatrix type="matrix" values="0 0 0 0 0.286753 0 0 0 0 0.37354 0 0 0 0 0.829167 0 0 0 0.12 0"/>
<feBlend mode="normal" in2="BackgroundImageFix" result="effect1_dropShadow_2119:953"/>
<feBlend mode="normal" in="SourceGraphic" in2="effect1_dropShadow_2119:953" result="shape"/>
</filter>
<clipPath id="clip0_2119:953">
<rect width="50" height="50" fill="white" transform="translate(59 49)"/>
</clipPath>
</defs>
</svg>
