<svg width="120" height="120" viewBox="0 0 120 120" fill="none" xmlns="http://www.w3.org/2000/svg">
<circle cx="60" cy="60" r="60" fill="white"/>
<circle opacity="0.6" cx="60" cy="60" r="49" fill="#DEDEFF" fill-opacity="0.4" stroke="#3035C4" stroke-width="2"/>
<g clip-path="url(#clip0_2119:953)">
<path d="M67.0296 39.9663H51.8154C51.4108 39.9663 51.0829 40.2941 51.0829 40.6987C51.0829 41.1033 51.4108 41.4312 51.8154 41.4312H67.0296C67.4342 41.4312 67.762 41.1033 67.762 40.6987C67.762 40.2941 67.4342 39.9663 67.0296 39.9663Z" fill="#E6514A"/>
<path fill-rule="evenodd" clip-rule="evenodd" d="M50.8329 40.6987C50.8329 40.1561 51.2727 39.7163 51.8154 39.7163H67.0296C67.5723 39.7163 68.012 40.1561 68.012 40.6987C68.012 41.2414 67.5723 41.6812 67.0296 41.6812H51.8154C51.2727 41.6812 50.8329 41.2414 50.8329 40.6987ZM51.8154 40.2163C51.5488 40.2163 51.3329 40.4322 51.3329 40.6987C51.3329 40.9652 51.5488 41.1812 51.8154 41.1812H67.0296C67.2961 41.1812 67.512 40.9652 67.512 40.6987C67.512 40.4322 67.2961 40.2163 67.0296 40.2163H51.8154Z" fill="#E6514A"/>
<path d="M67.0296 44.2534H51.8154C51.4108 44.2534 51.0829 44.5813 51.0829 44.9858C51.0829 45.3904 51.4108 45.7183 51.8154 45.7183H67.0296C67.4342 45.7183 67.762 45.3904 67.762 44.9858C67.762 44.5813 67.4342 44.2534 67.0296 44.2534Z" fill="#E6514A"/>
<path fill-rule="evenodd" clip-rule="evenodd" d="M50.8329 44.9858C50.8329 44.4432 51.2727 44.0034 51.8154 44.0034H67.0296C67.5723 44.0034 68.012 44.4432 68.012 44.9858C68.012 45.5285 67.5723 45.9683 67.0296 45.9683H51.8154C51.2727 45.9683 50.8329 45.5285 50.8329 44.9858ZM51.8154 44.5034C51.5488 44.5034 51.3329 44.7193 51.3329 44.9858C51.3329 45.2524 51.5488 45.4683 51.8154 45.4683H67.0296C67.2961 45.4683 67.512 45.2524 67.512 44.9858C67.512 44.7193 67.2961 44.5034 67.0296 44.5034H51.8154Z" fill="#E6514A"/>
<path d="M81.0474 60.3305H76.6992V58.2857C76.6992 55.5908 74.5068 53.3984 71.8118 53.3984H63.5775C60.8825 53.3984 58.6901 55.5908 58.6901 58.2857V60.3305H54.3419C52.155 60.3305 50.3893 62.1036 50.3893 64.2831V81.0334C50.3893 83.2128 52.1624 84.986 54.3419 84.986H81.0475C83.2269 84.986 85.0001 83.2129 85.0001 81.0334V77.8596C85.0001 77.455 84.6723 77.1271 84.2677 77.1271C83.8631 77.1271 83.5353 77.455 83.5353 77.8596V81.0334C83.5353 82.4052 82.4193 83.5212 81.0475 83.5212H54.3419C52.9701 83.5212 51.8541 82.4052 51.8541 81.0334V70.6527C53.0083 72.0759 54.7447 73.0087 56.6972 73.085V74.2032C56.6972 75.6791 57.898 76.8799 59.3739 76.8799C60.8497 76.8799 62.0505 75.6791 62.0505 74.2032V73.09H73.3388V74.2032C73.3388 75.6791 74.5396 76.8799 76.0155 76.8799C77.4913 76.8799 78.6921 75.6791 78.6921 74.2032V73.085C80.6447 73.0087 82.381 72.0759 83.5352 70.6527V74.4354C83.5352 74.84 83.863 75.1679 84.2676 75.1679C84.6722 75.1679 85 74.84 85 74.4354V64.2829C85 62.1042 83.2351 60.3305 81.0474 60.3305ZM60.1549 58.2857C60.1549 56.3986 61.6903 54.8633 63.5775 54.8633H71.8118C73.699 54.8633 75.2344 56.3986 75.2344 58.2857V60.3305H73.7091V58.2857C73.7091 57.2397 72.858 56.3887 71.8118 56.3887H63.5775C62.5314 56.3887 61.6803 57.2397 61.6803 58.2857V60.3305H60.1549V58.2857ZM63.1451 60.3305V58.2857C63.1451 58.0475 63.339 57.8535 63.5775 57.8535H71.8118C72.0502 57.8535 72.2443 58.0474 72.2443 58.2857V60.3305H63.1451ZM60.5857 74.2032C60.5857 74.8715 60.0421 75.415 59.3739 75.415C58.7056 75.415 58.162 74.8715 58.162 74.2032V71.585C58.162 70.9167 58.7056 70.3731 59.3739 70.3731C60.0421 70.3731 60.5857 70.9167 60.5857 71.585V74.2032ZM77.2273 74.2032C77.2273 74.8715 76.6837 75.415 76.0155 75.415C75.3472 75.415 74.8036 74.8715 74.8036 74.2032V72.3651C74.8036 72.3626 74.8037 72.3601 74.8037 72.3576C74.8037 72.3552 74.8036 72.3525 74.8036 72.3501V71.5851C74.8036 70.9168 75.3472 70.3732 76.0155 70.3732C76.6837 70.3732 77.2273 70.9168 77.2273 71.5851V74.2032ZM78.6921 71.6186V71.5851C78.6921 70.1092 77.4913 68.9084 76.0155 68.9084C74.5396 68.9084 73.3388 70.1092 73.3388 71.5851V71.6252H62.0505V71.5851C62.0505 70.1092 60.8497 68.9084 59.3739 68.9084C57.898 68.9084 56.6972 70.1092 56.6972 71.5851V71.6186C54.0037 71.483 51.8541 69.2491 51.8541 66.5226V64.2829C51.8541 62.9092 52.9675 61.7952 54.3419 61.7952H81.0475C82.4184 61.7952 83.5353 62.9057 83.5353 64.283V66.5226C83.5352 69.2491 81.3856 71.483 78.6921 71.6186Z" fill="#3035C4"/>
<path d="M49.445 83.5208H38.622C37.4325 83.5208 36.4648 82.5531 36.4648 81.3637V46.1827C36.4648 46.0246 36.4817 45.8691 36.5147 45.7183H43.1803C44.572 45.7183 45.7042 44.586 45.7042 43.1944V36.5289C45.8551 36.496 46.0105 36.479 46.1687 36.479H71.0015C72.1909 36.479 73.1586 37.4467 73.1586 38.6361V51.2027C73.1586 51.6073 73.4864 51.9352 73.891 51.9352C74.2956 51.9352 74.6234 51.6073 74.6234 51.2027V38.6361C74.6234 36.639 72.9986 35.0142 71.0015 35.0142H46.1686C45.2011 35.0142 44.2914 35.3908 43.6073 36.0749L36.0607 43.6216C35.3767 44.3057 35 45.2152 35 46.1827V81.3637C35 83.3608 36.6248 84.9856 38.622 84.9856H49.445C49.8496 84.9856 50.1774 84.6578 50.1774 84.2532C50.1774 83.8486 49.8496 83.5208 49.445 83.5208ZM44.2393 37.5148V43.1944C44.2393 43.7783 43.7642 44.2534 43.1802 44.2534H37.5007L44.2393 37.5148Z" fill="#3035C4"/>
<path fill-rule="evenodd" clip-rule="evenodd" d="M43.4305 35.8981C44.1615 35.1671 45.1348 34.7642 46.1686 34.7642H71.0015C73.1367 34.7642 74.8734 36.5009 74.8734 38.6361V51.2027C74.8734 51.7454 74.4337 52.1852 73.891 52.1852C73.3484 52.1852 72.9086 51.7454 72.9086 51.2027V38.6361C72.9086 37.5848 72.0528 36.729 71.0015 36.729H46.1687C46.0964 36.729 46.0249 36.733 45.9542 36.7409V43.1944C45.9542 44.7241 44.71 45.9683 43.1803 45.9683H36.7267C36.7188 46.0389 36.7148 46.1104 36.7148 46.1827V81.3637C36.7148 82.4151 37.5706 83.2708 38.622 83.2708H49.445C49.9877 83.2708 50.4274 83.7106 50.4274 84.2532C50.4274 84.7959 49.9877 85.2356 49.445 85.2356H38.622C36.4867 85.2356 34.75 83.4989 34.75 81.3637V46.1827C34.75 45.1489 35.153 44.1758 35.884 43.4448L43.4305 35.8981ZM46.1686 35.2642C45.2674 35.2642 44.4213 35.6145 43.7841 36.2517L36.2375 43.7984C35.6003 44.4355 35.25 45.2815 35.25 46.1827V81.3637C35.25 83.2228 36.7629 84.7356 38.622 84.7356H49.445C49.7115 84.7356 49.9274 84.5197 49.9274 84.2532C49.9274 83.9867 49.7115 83.7708 49.445 83.7708H38.622C37.2944 83.7708 36.2148 82.6912 36.2148 81.3637V46.1827C36.2148 46.0068 36.2336 45.8334 36.2705 45.6648L36.3135 45.4683H43.1803C44.4339 45.4683 45.4542 44.448 45.4542 43.1944V36.3276L45.6509 36.2846C45.8193 36.2479 45.9926 36.229 46.1687 36.229H71.0015C72.329 36.229 73.4086 37.3086 73.4086 38.6361V51.2027C73.4086 51.4693 73.6245 51.6852 73.891 51.6852C74.1575 51.6852 74.3734 51.4693 74.3734 51.2027V38.6361C74.3734 36.777 72.8606 35.2642 71.0015 35.2642H46.1686ZM44.4893 36.9113V43.1944C44.4893 43.9164 43.9022 44.5034 43.1802 44.5034H36.8971L44.4893 36.9113ZM38.1042 44.0034H43.1802C43.6261 44.0034 43.9893 43.6402 43.9893 43.1944V38.1184L38.1042 44.0034Z" fill="#3035C4"/>
</g>
<defs>
<clipPath id="clip0_2119:953">
<rect width="50" height="50" fill="white" transform="translate(35 35)"/>
</clipPath>
</defs>
</svg>
