<svg width="120" height="120" viewBox="0 0 120 120" fill="none" xmlns="http://www.w3.org/2000/svg">
<circle cx="60" cy="60" r="60" fill="white"/>
<circle opacity="0.6" cx="60" cy="60" r="49" fill="#DEDEFF" fill-opacity="0.4" stroke="#3035C4" stroke-width="2"/>
<g clip-path="url(#clip0_2119:938)">
<path d="M62.3418 43.2696H56.5455V36.4648H57.7663C58.1708 36.4648 58.4988 36.1369 58.4988 35.7324C58.4988 35.3279 58.1708 35 57.7663 35H42.9976C42.5931 35 42.265 35.3279 42.265 35.7324C42.265 36.1369 42.593 36.4648 42.9976 36.4648H44.2184V43.2696H38.4221C36.5351 43.2696 35 44.8046 35 46.6914V78.4221C35 80.1418 36.2753 81.5692 37.9299 81.8085V82.8027C37.9299 84.0144 38.9156 85 40.1273 85C41.3391 85 42.3248 84.0144 42.3248 82.8027V81.8438H58.4392V82.8027C58.4392 84.0144 59.4249 85 60.6366 85C61.8482 85 62.8341 84.0144 62.8341 82.8027V81.8085C64.4887 81.5691 65.764 80.1418 65.764 78.4221V52.2671C65.764 51.8626 65.436 51.5347 65.0314 51.5347C64.6269 51.5347 64.2989 51.8626 64.2989 52.2671V78.4221C64.2989 79.5012 63.421 80.379 62.3419 80.379H38.4221C37.343 80.379 36.465 79.5012 36.465 78.4221V46.6914C36.465 45.6123 37.343 44.7345 38.4221 44.7345H62.3418C63.421 44.7345 64.2988 45.6123 64.2988 46.6914V48.8384C64.2988 49.2429 64.6268 49.5708 65.0313 49.5708C65.4359 49.5708 65.7639 49.2429 65.7639 48.8384V46.6914C65.7638 44.8046 64.2287 43.2696 62.3418 43.2696ZM61.3689 81.8438V82.8027C61.3689 83.2066 61.0403 83.5352 60.6364 83.5352C60.2325 83.5352 59.9039 83.2066 59.9039 82.8027V81.8438H61.3689ZM40.8598 81.8438V82.8027C40.8598 83.2066 40.5312 83.5352 40.1272 83.5352C39.7233 83.5352 39.3948 83.2066 39.3948 82.8027V81.8438H40.8598ZM45.6833 36.4648H55.0806V43.2696H45.6833V36.4648Z" fill="#3035C4"/>
<path fill-rule="evenodd" clip-rule="evenodd" d="M42.015 35.7324C42.015 35.1898 42.455 34.75 42.9976 34.75H57.7663C58.3088 34.75 58.7488 35.1898 58.7488 35.7324C58.7488 36.275 58.3088 36.7148 57.7663 36.7148H56.7955V43.0196H62.3418C64.3668 43.0196 66.0138 44.6665 66.0139 46.6914V48.8384C66.0139 49.381 65.574 49.8208 65.0313 49.8208C64.4887 49.8208 64.0488 49.381 64.0488 48.8384V46.6914C64.0488 45.7504 63.2829 44.9845 62.3418 44.9845H38.4221C37.481 44.9845 36.715 45.7504 36.715 46.6914V78.4221C36.715 79.3631 37.481 80.129 38.4221 80.129H62.3419C63.2829 80.129 64.0489 79.3631 64.0489 78.4221V52.2671C64.0489 51.7245 64.4888 51.2847 65.0314 51.2847C65.5741 51.2847 66.014 51.7245 66.014 52.2671V78.4221C66.014 80.1931 64.7544 81.6742 63.0841 82.0184V82.8027C63.0841 84.1525 61.9863 85.25 60.6366 85.25C59.2869 85.25 58.1892 84.1524 58.1892 82.8027V82.0938H42.5748V82.8027C42.5748 84.1524 41.4771 85.25 40.1273 85.25C38.7776 85.25 37.6799 84.1524 37.6799 82.8027V82.0184C36.0096 81.6743 34.75 80.193 34.75 78.4221V46.6914C34.75 44.6665 36.397 43.0196 38.4221 43.0196H43.9684V36.7148H42.9976C42.4549 36.7148 42.015 36.275 42.015 35.7324ZM42.9976 35.25C42.7311 35.25 42.515 35.466 42.515 35.7324C42.515 35.9988 42.731 36.2148 42.9976 36.2148H44.4684V43.5196H38.4221C36.6731 43.5196 35.25 44.9427 35.25 46.6914V78.4221C35.25 80.0156 36.4321 81.3393 37.9657 81.5611L38.1799 81.592V82.8027C38.1799 83.8763 39.0537 84.75 40.1273 84.75C41.201 84.75 42.0748 83.8763 42.0748 82.8027V81.5938H58.6892V82.8027C58.6892 83.8763 59.563 84.75 60.6366 84.75C61.7102 84.75 62.5841 83.8763 62.5841 82.8027V81.5921L62.7983 81.5611C64.3319 81.3392 65.514 80.0156 65.514 78.4221V52.2671C65.514 52.0007 65.298 51.7847 65.0314 51.7847C64.7649 51.7847 64.5489 52.0007 64.5489 52.2671V78.4221C64.5489 79.6393 63.559 80.629 62.3419 80.629H38.4221C37.2049 80.629 36.215 79.6393 36.215 78.4221V46.6914C36.215 45.4742 37.2049 44.4845 38.4221 44.4845H62.3418C63.5591 44.4845 64.5488 45.4742 64.5488 46.6914V48.8384C64.5488 49.1048 64.7648 49.3208 65.0313 49.3208C65.2979 49.3208 65.5139 49.1048 65.5139 48.8384V46.6914C65.5138 44.9427 64.0907 43.5196 62.3418 43.5196H56.2955V36.2148H57.7663C58.0328 36.2148 58.2488 35.9988 58.2488 35.7324C58.2488 35.466 58.0328 35.25 57.7663 35.25H42.9976ZM45.4333 36.2148H55.3306V43.5196H45.4333V36.2148ZM45.9333 36.7148V43.0196H54.8306V36.7148H45.9333ZM39.1448 81.5938H41.1098V82.8027C41.1098 83.3448 40.6692 83.7852 40.1272 83.7852C39.5853 83.7852 39.1448 83.3447 39.1448 82.8027V81.5938ZM39.6448 82.0938V82.8027C39.6448 83.0686 39.8614 83.2852 40.1272 83.2852C40.3931 83.2852 40.6098 83.0685 40.6098 82.8027V82.0938H39.6448ZM59.6539 81.5938H61.6189V82.8027C61.6189 83.3448 61.1784 83.7852 60.6364 83.7852C60.0945 83.7852 59.6539 83.3448 59.6539 82.8027V81.5938ZM60.1539 82.0938V82.8027C60.1539 83.0685 60.3705 83.2852 60.6364 83.2852C60.9023 83.2852 61.1189 83.0685 61.1189 82.8027V82.0938H60.1539Z" fill="#3035C4"/>
<path d="M44.9394 78.9141H62.1015C62.506 78.9141 62.834 78.5861 62.834 78.1816V61.873C62.834 61.4686 62.506 61.1406 62.1015 61.1406H38.6624C38.2579 61.1406 37.9299 61.4686 37.9299 61.873V78.1816C37.9299 78.5861 38.2578 78.9141 38.6624 78.9141H41.5923C41.9968 78.9141 42.3248 78.5861 42.3248 78.1816C42.3248 77.7772 41.9969 77.4492 41.5923 77.4492H39.3948V62.6055H61.3689V77.4492H44.9394C44.5349 77.4492 44.2069 77.7772 44.2069 78.1816C44.2069 78.5861 44.5349 78.9141 44.9394 78.9141Z" fill="#3035C4"/>
<path fill-rule="evenodd" clip-rule="evenodd" d="M37.6799 61.873C37.6799 61.3304 38.1199 60.8906 38.6624 60.8906H62.1015C62.6441 60.8906 63.084 61.3305 63.084 61.873V78.1816C63.084 78.7242 62.6441 79.1641 62.1015 79.1641H44.9394C44.3969 79.1641 43.9569 78.7243 43.9569 78.1816C43.9569 77.639 44.3969 77.1992 44.9394 77.1992H61.1189V62.8555H39.6448V77.1992H41.5923C42.1349 77.1992 42.5748 77.6391 42.5748 78.1816C42.5748 78.7243 42.1348 79.1641 41.5923 79.1641H38.6624C38.1198 79.1641 37.6799 78.7242 37.6799 78.1816V61.873ZM38.6624 61.3906C38.3959 61.3906 38.1799 61.6067 38.1799 61.873V78.1816C38.1799 78.448 38.3958 78.6641 38.6624 78.6641H41.5923C41.8587 78.6641 42.0748 78.448 42.0748 78.1816C42.0748 77.9152 41.8588 77.6992 41.5923 77.6992H39.1448V62.3555H61.6189V77.6992H44.9394C44.673 77.6992 44.4569 77.9153 44.4569 78.1816C44.4569 78.448 44.673 78.6641 44.9394 78.6641H62.1015C62.368 78.6641 62.584 78.448 62.584 78.1816V61.873C62.584 61.6066 62.368 61.3906 62.1015 61.3906H38.6624Z" fill="#3035C4"/>
<path d="M56.8277 68.6109C57.2322 68.6109 57.5602 68.283 57.5602 67.8785V65.4995H59.1717C59.5762 65.4995 59.9042 65.1716 59.9042 64.7671C59.9042 64.3626 59.5762 64.0347 59.1717 64.0347H41.5923C41.1878 64.0347 40.8597 64.3626 40.8597 64.7671C40.8597 65.1716 41.1877 65.4995 41.5923 65.4995H56.0952V67.8785C56.0952 68.283 56.4231 68.6109 56.8277 68.6109Z" fill="#E6514A"/>
<path fill-rule="evenodd" clip-rule="evenodd" d="M40.6097 64.7671C40.6097 64.2245 41.0497 63.7847 41.5923 63.7847H59.1717C59.7143 63.7847 60.1542 64.2245 60.1542 64.7671C60.1542 65.3097 59.7143 65.7495 59.1717 65.7495H57.8102V67.8785C57.8102 68.4211 57.3702 68.8609 56.8277 68.8609C56.2851 68.8609 55.8452 68.4211 55.8452 67.8785V65.7495H41.5923C41.0496 65.7495 40.6097 65.3097 40.6097 64.7671ZM41.5923 64.2847C41.3258 64.2847 41.1097 64.5007 41.1097 64.7671C41.1097 65.0335 41.3257 65.2495 41.5923 65.2495H56.3452V67.8785C56.3452 68.1449 56.5612 68.3609 56.8277 68.3609C57.0942 68.3609 57.3102 68.1449 57.3102 67.8785V65.2495H59.1717C59.4382 65.2495 59.6542 65.0335 59.6542 64.7671C59.6542 64.5007 59.4382 64.2847 59.1717 64.2847H41.5923Z" fill="#E6514A"/>
<path d="M55.265 54.9814C55.6695 54.9814 55.9976 54.6535 55.9976 54.249V51.3193C55.9976 50.9148 55.6696 50.5869 55.265 50.5869H45.4987C45.0942 50.5869 44.7662 50.9148 44.7662 51.3193V54.249C44.7662 54.6535 45.0941 54.9814 45.4987 54.9814H55.265ZM46.2312 52.0518H54.5326V53.5166H46.2312V52.0518Z" fill="#E6514A"/>
<path fill-rule="evenodd" clip-rule="evenodd" d="M44.5162 51.3193C44.5162 50.7767 44.9562 50.3369 45.4987 50.3369H55.265C55.8077 50.3369 56.2476 50.7768 56.2476 51.3193V54.249C56.2476 54.7916 55.8076 55.2314 55.265 55.2314H45.4987C44.9561 55.2314 44.5162 54.7916 44.5162 54.249V51.3193ZM45.4987 50.8369C45.2323 50.8369 45.0162 51.053 45.0162 51.3193V54.249C45.0162 54.5154 45.2322 54.7314 45.4987 54.7314H55.265C55.5315 54.7314 55.7476 54.5154 55.7476 54.249V51.3193C55.7476 51.0529 55.5316 50.8369 55.265 50.8369H45.4987ZM45.9812 51.8018H54.7826V53.7666H45.9812V51.8018ZM46.4812 52.3018V53.2666H54.2826V52.3018H46.4812Z" fill="#E6514A"/>
<path d="M81.5779 57.8872H75.756V55.1008C75.756 53.8161 74.7108 52.771 73.4261 52.771H67.9129C67.5083 52.771 67.1804 53.0989 67.1804 53.5034C67.1804 53.9079 67.5083 54.2358 67.9129 54.2358H73.4261C73.903 54.2358 74.2911 54.6239 74.2911 55.1008V57.8872H67.9129C67.5083 57.8872 67.1804 58.2151 67.1804 58.6196C67.1804 59.0241 67.5083 59.352 67.9129 59.352H74.2911V60.8163L72.7429 62.3934C72.6085 62.5303 72.5331 62.7145 72.5331 62.9064V67.3986C72.5331 67.8031 72.861 68.1311 73.2656 68.1311H76.7815C77.1861 68.1311 77.5141 67.8031 77.5141 67.3986V62.9064C77.5141 62.7145 77.4387 62.5303 77.3043 62.3934L75.756 60.8163V59.352H81.5779C82.6571 59.352 83.5351 60.2299 83.5351 61.309V72.8514H81.0432C80.6386 72.8514 80.3106 73.1793 80.3106 73.5838C80.3106 73.9883 80.6386 74.3162 81.0432 74.3162H83.5351V76.2463H67.9128C67.5082 76.2463 67.1803 76.5742 67.1803 76.9787C67.1803 77.3832 67.5082 77.7111 67.9128 77.7111H83.5351V78.4221C83.5351 79.5012 82.657 80.379 81.5779 80.379H67.9128C67.5082 80.379 67.1803 80.7069 67.1803 81.1114C67.1803 81.5159 67.5082 81.8438 67.9128 81.8438H77.9155V82.8027C77.9155 84.0144 78.9013 85 80.113 85C81.3247 85 82.3104 84.0144 82.3104 82.8027V81.7649C83.8466 81.4286 85 80.0574 85 78.422V61.309C85 59.4222 83.4648 57.8872 81.5779 57.8872ZM76.0489 66.6662H73.998V63.2059L75.0235 62.1613L76.049 63.2059V66.6662H76.0489ZM80.8454 82.8026C80.8454 83.2065 80.5168 83.5351 80.1129 83.5351C79.709 83.5351 79.3804 83.2065 79.3804 82.8026V81.8437H80.8453V82.8026H80.8454Z" fill="#3035C4"/>
<path fill-rule="evenodd" clip-rule="evenodd" d="M66.9304 53.5034C66.9304 52.9608 67.3702 52.521 67.9129 52.521H73.4261C74.8489 52.521 76.006 53.678 76.006 55.1008V57.6372H81.5779C83.6029 57.6372 85.25 59.2841 85.25 61.309V78.422C85.25 80.1071 84.1096 81.5297 82.5604 81.9604V82.8027C82.5604 84.1524 81.4627 85.25 80.113 85.25C78.7632 85.25 77.6655 84.1524 77.6655 82.8027V82.0938H67.9128C67.3701 82.0938 66.9303 81.654 66.9303 81.1114C66.9303 80.5688 67.3701 80.129 67.9128 80.129H81.5779C82.519 80.129 83.2851 79.3631 83.2851 78.4221V77.9611H67.9128C67.3701 77.9611 66.9303 77.5213 66.9303 76.9787C66.9303 76.4361 67.3701 75.9963 67.9128 75.9963H83.2851V74.5662H81.0432C80.5005 74.5662 80.0606 74.1264 80.0606 73.5838C80.0606 73.0412 80.5005 72.6014 81.0432 72.6014H83.2851V61.309C83.2851 60.368 82.5191 59.602 81.5779 59.602H76.006V60.7141L77.4827 62.2182C77.6629 62.4018 77.7641 62.649 77.7641 62.9064V67.3986C77.7641 67.9412 77.3242 68.3811 76.7815 68.3811H73.2656C72.723 68.3811 72.2831 67.9412 72.2831 67.3986V62.9064C72.2831 62.649 72.3842 62.4019 72.5644 62.2182L74.0411 60.7141V59.602H67.9129C67.3702 59.602 66.9304 59.1622 66.9304 58.6196C66.9304 58.077 67.3702 57.6372 67.9129 57.6372H74.0411V55.1008C74.0411 54.762 73.765 54.4858 73.4261 54.4858H67.9129C67.3702 54.4858 66.9304 54.046 66.9304 53.5034ZM67.9129 53.021C67.6463 53.021 67.4304 53.237 67.4304 53.5034C67.4304 53.7698 67.6463 53.9858 67.9129 53.9858H73.4261C74.0411 53.9858 74.5411 54.4858 74.5411 55.1008V58.1372H67.9129C67.6463 58.1372 67.4304 58.3532 67.4304 58.6196C67.4304 58.886 67.6463 59.102 67.9129 59.102H74.5411V60.9185L72.9213 62.5685C72.8328 62.6587 72.7831 62.7801 72.7831 62.9064V67.3986C72.7831 67.665 72.9991 67.8811 73.2656 67.8811H76.7815C77.0481 67.8811 77.2641 67.665 77.2641 67.3986V62.9064C77.2641 62.7801 77.2144 62.6587 77.1259 62.5685L75.506 60.9185V59.102H81.5779C82.7952 59.102 83.7851 60.0918 83.7851 61.309V73.1014H81.0432C80.7766 73.1014 80.5606 73.3174 80.5606 73.5838C80.5606 73.8502 80.7766 74.0662 81.0432 74.0662H83.7851V76.4963H67.9128C67.6462 76.4963 67.4303 76.7123 67.4303 76.9787C67.4303 77.2451 67.6462 77.4611 67.9128 77.4611H83.7851V78.4221C83.7851 79.6393 82.7951 80.629 81.5779 80.629H67.9128C67.6462 80.629 67.4303 80.845 67.4303 81.1114C67.4303 81.3778 67.6462 81.5938 67.9128 81.5938H78.1655V82.8027C78.1655 83.8763 79.0393 84.75 80.113 84.75C81.1867 84.75 82.0604 83.8763 82.0604 82.8027V81.5638L82.257 81.5207C83.681 81.2089 84.75 79.9373 84.75 78.422V61.309C84.75 59.5603 83.3268 58.1372 81.5779 58.1372H75.506V55.1008C75.506 53.9542 74.5728 53.021 73.4261 53.021H67.9129ZM75.0235 61.8045L76.299 63.1037V66.9162H73.748V63.1037L75.0235 61.8045ZM74.248 63.3081V66.4162H75.799V63.3081L75.0235 62.5182L74.248 63.3081ZM79.1304 81.5937H81.0953V82.5526L81.0954 82.8026C81.0954 83.3447 80.6548 83.7851 80.1129 83.7851C79.5709 83.7851 79.1304 83.3447 79.1304 82.8026V81.5937ZM80.5953 82.8124V82.0937H79.6304V82.8026C79.6304 83.0684 79.847 83.2851 80.1129 83.2851C80.3755 83.2851 80.5901 83.0737 80.5953 82.8124Z" fill="#3035C4"/>
<path d="M67.9128 74.3164H77.6583C78.0629 74.3164 78.3908 73.9885 78.3908 73.584C78.3908 73.1795 78.0629 72.8516 77.6583 72.8516H67.9128C67.5082 72.8516 67.1803 73.1795 67.1803 73.584C67.1803 73.9885 67.5082 74.3164 67.9128 74.3164Z" fill="#3035C4"/>
<path fill-rule="evenodd" clip-rule="evenodd" d="M66.9303 73.584C66.9303 73.0414 67.3701 72.6016 67.9128 72.6016H77.6583C78.2009 72.6016 78.6408 73.0414 78.6408 73.584C78.6408 74.1266 78.2009 74.5664 77.6583 74.5664H67.9128C67.3701 74.5664 66.9303 74.1266 66.9303 73.584ZM67.9128 73.1016C67.6462 73.1016 67.4303 73.3176 67.4303 73.584C67.4303 73.8504 67.6462 74.0664 67.9128 74.0664H77.6583C77.9248 74.0664 78.1408 73.8504 78.1408 73.584C78.1408 73.3176 77.9248 73.1016 77.6583 73.1016H67.9128Z" fill="#3035C4"/>
</g>
<defs>
<clipPath id="clip0_2119:938">
<rect width="50" height="50" fill="white" transform="translate(35 35)"/>
</clipPath>
</defs>
</svg>
