<svg width="168" height="168" viewBox="0 0 168 168" fill="none" xmlns="http://www.w3.org/2000/svg">
<g filter="url(#filter0_d_2119:938)">
<circle cx="84" cy="74" r="60" fill="white"/>
</g>
<circle opacity="0.6" cx="84" cy="74" r="49" fill="#DEDEFF" fill-opacity="0.4" stroke="#3035C4" stroke-width="2"/>
<g clip-path="url(#clip0_2119:938)">
<path d="M86.3418 57.2696H80.5455V50.4648H81.7663C82.1708 50.4648 82.4988 50.1369 82.4988 49.7324C82.4988 49.3279 82.1708 49 81.7663 49H66.9976C66.5931 49 66.265 49.3279 66.265 49.7324C66.265 50.1369 66.593 50.4648 66.9976 50.4648H68.2184V57.2696H62.4221C60.5351 57.2696 59 58.8046 59 60.6914V92.4221C59 94.1418 60.2753 95.5692 61.9299 95.8085V96.8027C61.9299 98.0144 62.9156 99 64.1273 99C65.3391 99 66.3248 98.0144 66.3248 96.8027V95.8438H82.4392V96.8027C82.4392 98.0144 83.4249 99 84.6366 99C85.8482 99 86.8341 98.0144 86.8341 96.8027V95.8085C88.4887 95.5691 89.764 94.1418 89.764 92.4221V66.2671C89.764 65.8626 89.436 65.5347 89.0314 65.5347C88.6269 65.5347 88.2989 65.8626 88.2989 66.2671V92.4221C88.2989 93.5012 87.421 94.379 86.3419 94.379H62.4221C61.343 94.379 60.465 93.5012 60.465 92.4221V60.6914C60.465 59.6123 61.343 58.7345 62.4221 58.7345H86.3418C87.421 58.7345 88.2988 59.6123 88.2988 60.6914V62.8384C88.2988 63.2429 88.6268 63.5708 89.0313 63.5708C89.4359 63.5708 89.7639 63.2429 89.7639 62.8384V60.6914C89.7638 58.8046 88.2287 57.2696 86.3418 57.2696ZM85.3689 95.8438V96.8027C85.3689 97.2066 85.0403 97.5352 84.6364 97.5352C84.2325 97.5352 83.9039 97.2066 83.9039 96.8027V95.8438H85.3689ZM64.8598 95.8438V96.8027C64.8598 97.2066 64.5312 97.5352 64.1272 97.5352C63.7233 97.5352 63.3948 97.2066 63.3948 96.8027V95.8438H64.8598ZM69.6833 50.4648H79.0806V57.2696H69.6833V50.4648Z" fill="#3035C4"/>
<path fill-rule="evenodd" clip-rule="evenodd" d="M66.015 49.7324C66.015 49.1898 66.455 48.75 66.9976 48.75H81.7663C82.3088 48.75 82.7488 49.1898 82.7488 49.7324C82.7488 50.275 82.3088 50.7148 81.7663 50.7148H80.7955V57.0196H86.3418C88.3668 57.0196 90.0138 58.6665 90.0139 60.6914V62.8384C90.0139 63.381 89.574 63.8208 89.0313 63.8208C88.4887 63.8208 88.0488 63.381 88.0488 62.8384V60.6914C88.0488 59.7504 87.2829 58.9845 86.3418 58.9845H62.4221C61.481 58.9845 60.715 59.7504 60.715 60.6914V92.4221C60.715 93.3631 61.481 94.129 62.4221 94.129H86.3419C87.2829 94.129 88.0489 93.3631 88.0489 92.4221V66.2671C88.0489 65.7245 88.4888 65.2847 89.0314 65.2847C89.5741 65.2847 90.014 65.7245 90.014 66.2671V92.4221C90.014 94.1931 88.7544 95.6742 87.0841 96.0184V96.8027C87.0841 98.1525 85.9863 99.25 84.6366 99.25C83.2869 99.25 82.1892 98.1524 82.1892 96.8027V96.0938H66.5748V96.8027C66.5748 98.1524 65.4771 99.25 64.1273 99.25C62.7776 99.25 61.6799 98.1524 61.6799 96.8027V96.0184C60.0096 95.6743 58.75 94.193 58.75 92.4221V60.6914C58.75 58.6665 60.397 57.0196 62.4221 57.0196H67.9684V50.7148H66.9976C66.4549 50.7148 66.015 50.275 66.015 49.7324ZM66.9976 49.25C66.7311 49.25 66.515 49.466 66.515 49.7324C66.515 49.9988 66.731 50.2148 66.9976 50.2148H68.4684V57.5196H62.4221C60.6731 57.5196 59.25 58.9427 59.25 60.6914V92.4221C59.25 94.0156 60.4321 95.3393 61.9657 95.5611L62.1799 95.592V96.8027C62.1799 97.8763 63.0537 98.75 64.1273 98.75C65.201 98.75 66.0748 97.8763 66.0748 96.8027V95.5938H82.6892V96.8027C82.6892 97.8763 83.563 98.75 84.6366 98.75C85.7102 98.75 86.5841 97.8763 86.5841 96.8027V95.5921L86.7983 95.5611C88.3319 95.3392 89.514 94.0156 89.514 92.4221V66.2671C89.514 66.0007 89.298 65.7847 89.0314 65.7847C88.7649 65.7847 88.5489 66.0007 88.5489 66.2671V92.4221C88.5489 93.6393 87.559 94.629 86.3419 94.629H62.4221C61.2049 94.629 60.215 93.6393 60.215 92.4221V60.6914C60.215 59.4742 61.2049 58.4845 62.4221 58.4845H86.3418C87.5591 58.4845 88.5488 59.4742 88.5488 60.6914V62.8384C88.5488 63.1048 88.7648 63.3208 89.0313 63.3208C89.2979 63.3208 89.5139 63.1048 89.5139 62.8384V60.6914C89.5138 58.9427 88.0907 57.5196 86.3418 57.5196H80.2955V50.2148H81.7663C82.0328 50.2148 82.2488 49.9988 82.2488 49.7324C82.2488 49.466 82.0328 49.25 81.7663 49.25H66.9976ZM69.4333 50.2148H79.3306V57.5196H69.4333V50.2148ZM69.9333 50.7148V57.0196H78.8306V50.7148H69.9333ZM63.1448 95.5938H65.1098V96.8027C65.1098 97.3448 64.6692 97.7852 64.1272 97.7852C63.5853 97.7852 63.1448 97.3447 63.1448 96.8027V95.5938ZM63.6448 96.0938V96.8027C63.6448 97.0686 63.8614 97.2852 64.1272 97.2852C64.3931 97.2852 64.6098 97.0685 64.6098 96.8027V96.0938H63.6448ZM83.6539 95.5938H85.6189V96.8027C85.6189 97.3448 85.1784 97.7852 84.6364 97.7852C84.0945 97.7852 83.6539 97.3448 83.6539 96.8027V95.5938ZM84.1539 96.0938V96.8027C84.1539 97.0685 84.3705 97.2852 84.6364 97.2852C84.9023 97.2852 85.1189 97.0685 85.1189 96.8027V96.0938H84.1539Z" fill="#3035C4"/>
<path d="M68.9394 92.9141H86.1015C86.506 92.9141 86.834 92.5861 86.834 92.1816V75.873C86.834 75.4686 86.506 75.1406 86.1015 75.1406H62.6624C62.2579 75.1406 61.9299 75.4686 61.9299 75.873V92.1816C61.9299 92.5861 62.2578 92.9141 62.6624 92.9141H65.5923C65.9968 92.9141 66.3248 92.5861 66.3248 92.1816C66.3248 91.7772 65.9969 91.4492 65.5923 91.4492H63.3948V76.6055H85.3689V91.4492H68.9394C68.5349 91.4492 68.2069 91.7772 68.2069 92.1816C68.2069 92.5861 68.5349 92.9141 68.9394 92.9141Z" fill="#3035C4"/>
<path fill-rule="evenodd" clip-rule="evenodd" d="M61.6799 75.873C61.6799 75.3304 62.1199 74.8906 62.6624 74.8906H86.1015C86.6441 74.8906 87.084 75.3305 87.084 75.873V92.1816C87.084 92.7242 86.6441 93.1641 86.1015 93.1641H68.9394C68.3969 93.1641 67.9569 92.7243 67.9569 92.1816C67.9569 91.639 68.3969 91.1992 68.9394 91.1992H85.1189V76.8555H63.6448V91.1992H65.5923C66.1349 91.1992 66.5748 91.6391 66.5748 92.1816C66.5748 92.7243 66.1348 93.1641 65.5923 93.1641H62.6624C62.1198 93.1641 61.6799 92.7242 61.6799 92.1816V75.873ZM62.6624 75.3906C62.3959 75.3906 62.1799 75.6067 62.1799 75.873V92.1816C62.1799 92.448 62.3958 92.6641 62.6624 92.6641H65.5923C65.8587 92.6641 66.0748 92.448 66.0748 92.1816C66.0748 91.9152 65.8588 91.6992 65.5923 91.6992H63.1448V76.3555H85.6189V91.6992H68.9394C68.673 91.6992 68.4569 91.9153 68.4569 92.1816C68.4569 92.448 68.673 92.6641 68.9394 92.6641H86.1015C86.368 92.6641 86.584 92.448 86.584 92.1816V75.873C86.584 75.6066 86.368 75.3906 86.1015 75.3906H62.6624Z" fill="#3035C4"/>
<path d="M80.8277 82.6109C81.2322 82.6109 81.5602 82.283 81.5602 81.8785V79.4995H83.1717C83.5762 79.4995 83.9042 79.1716 83.9042 78.7671C83.9042 78.3626 83.5762 78.0347 83.1717 78.0347H65.5923C65.1878 78.0347 64.8597 78.3626 64.8597 78.7671C64.8597 79.1716 65.1877 79.4995 65.5923 79.4995H80.0952V81.8785C80.0952 82.283 80.4231 82.6109 80.8277 82.6109Z" fill="#E6514A"/>
<path fill-rule="evenodd" clip-rule="evenodd" d="M64.6097 78.7671C64.6097 78.2245 65.0497 77.7847 65.5923 77.7847H83.1717C83.7143 77.7847 84.1542 78.2245 84.1542 78.7671C84.1542 79.3097 83.7143 79.7495 83.1717 79.7495H81.8102V81.8785C81.8102 82.4211 81.3702 82.8609 80.8277 82.8609C80.2851 82.8609 79.8452 82.4211 79.8452 81.8785V79.7495H65.5923C65.0496 79.7495 64.6097 79.3097 64.6097 78.7671ZM65.5923 78.2847C65.3258 78.2847 65.1097 78.5007 65.1097 78.7671C65.1097 79.0335 65.3257 79.2495 65.5923 79.2495H80.3452V81.8785C80.3452 82.1449 80.5612 82.3609 80.8277 82.3609C81.0942 82.3609 81.3102 82.1449 81.3102 81.8785V79.2495H83.1717C83.4382 79.2495 83.6542 79.0335 83.6542 78.7671C83.6542 78.5007 83.4382 78.2847 83.1717 78.2847H65.5923Z" fill="#E6514A"/>
<path d="M79.265 68.9814C79.6695 68.9814 79.9976 68.6535 79.9976 68.249V65.3193C79.9976 64.9148 79.6696 64.5869 79.265 64.5869H69.4987C69.0942 64.5869 68.7662 64.9148 68.7662 65.3193V68.249C68.7662 68.6535 69.0941 68.9814 69.4987 68.9814H79.265ZM70.2312 66.0518H78.5326V67.5166H70.2312V66.0518Z" fill="#E6514A"/>
<path fill-rule="evenodd" clip-rule="evenodd" d="M68.5162 65.3193C68.5162 64.7767 68.9562 64.3369 69.4987 64.3369H79.265C79.8077 64.3369 80.2476 64.7768 80.2476 65.3193V68.249C80.2476 68.7916 79.8076 69.2314 79.265 69.2314H69.4987C68.9561 69.2314 68.5162 68.7916 68.5162 68.249V65.3193ZM69.4987 64.8369C69.2323 64.8369 69.0162 65.053 69.0162 65.3193V68.249C69.0162 68.5154 69.2322 68.7314 69.4987 68.7314H79.265C79.5315 68.7314 79.7476 68.5154 79.7476 68.249V65.3193C79.7476 65.0529 79.5316 64.8369 79.265 64.8369H69.4987ZM69.9812 65.8018H78.7826V67.7666H69.9812V65.8018ZM70.4812 66.3018V67.2666H78.2826V66.3018H70.4812Z" fill="#E6514A"/>
<path d="M105.578 71.8872H99.756V69.1008C99.756 67.8161 98.7108 66.771 97.4261 66.771H91.9129C91.5083 66.771 91.1804 67.0989 91.1804 67.5034C91.1804 67.9079 91.5083 68.2358 91.9129 68.2358H97.4261C97.903 68.2358 98.2911 68.6239 98.2911 69.1008V71.8872H91.9129C91.5083 71.8872 91.1804 72.2151 91.1804 72.6196C91.1804 73.0241 91.5083 73.352 91.9129 73.352H98.2911V74.8163L96.7429 76.3934C96.6085 76.5303 96.5331 76.7145 96.5331 76.9064V81.3986C96.5331 81.8031 96.861 82.1311 97.2656 82.1311H100.782C101.186 82.1311 101.514 81.8031 101.514 81.3986V76.9064C101.514 76.7145 101.439 76.5303 101.304 76.3934L99.756 74.8163V73.352H105.578C106.657 73.352 107.535 74.2299 107.535 75.309V86.8514H105.043C104.639 86.8514 104.311 87.1793 104.311 87.5838C104.311 87.9883 104.639 88.3162 105.043 88.3162H107.535V90.2463H91.9128C91.5082 90.2463 91.1803 90.5742 91.1803 90.9787C91.1803 91.3832 91.5082 91.7111 91.9128 91.7111H107.535V92.4221C107.535 93.5012 106.657 94.379 105.578 94.379H91.9128C91.5082 94.379 91.1803 94.7069 91.1803 95.1114C91.1803 95.5159 91.5082 95.8438 91.9128 95.8438H101.916V96.8027C101.916 98.0144 102.901 99 104.113 99C105.325 99 106.31 98.0144 106.31 96.8027V95.7649C107.847 95.4286 109 94.0574 109 92.422V75.309C109 73.4222 107.465 71.8872 105.578 71.8872ZM100.049 80.6662H97.998V77.2059L99.0235 76.1613L100.049 77.2059V80.6662H100.049ZM104.845 96.8026C104.845 97.2065 104.517 97.5351 104.113 97.5351C103.709 97.5351 103.38 97.2065 103.38 96.8026V95.8437H104.845V96.8026H104.845Z" fill="#3035C4"/>
<path fill-rule="evenodd" clip-rule="evenodd" d="M90.9304 67.5034C90.9304 66.9608 91.3702 66.521 91.9129 66.521H97.4261C98.8489 66.521 100.006 67.678 100.006 69.1008V71.6372H105.578C107.603 71.6372 109.25 73.2841 109.25 75.309V92.422C109.25 94.1071 108.11 95.5297 106.56 95.9604V96.8027C106.56 98.1524 105.463 99.25 104.113 99.25C102.763 99.25 101.666 98.1524 101.666 96.8027V96.0938H91.9128C91.3701 96.0938 90.9303 95.654 90.9303 95.1114C90.9303 94.5688 91.3701 94.129 91.9128 94.129H105.578C106.519 94.129 107.285 93.3631 107.285 92.4221V91.9611H91.9128C91.3701 91.9611 90.9303 91.5213 90.9303 90.9787C90.9303 90.4361 91.3701 89.9963 91.9128 89.9963H107.285V88.5662H105.043C104.501 88.5662 104.061 88.1264 104.061 87.5838C104.061 87.0412 104.501 86.6014 105.043 86.6014H107.285V75.309C107.285 74.368 106.519 73.602 105.578 73.602H100.006V74.7141L101.483 76.2182C101.663 76.4018 101.764 76.649 101.764 76.9064V81.3986C101.764 81.9412 101.324 82.3811 100.782 82.3811H97.2656C96.723 82.3811 96.2831 81.9412 96.2831 81.3986V76.9064C96.2831 76.649 96.3842 76.4019 96.5644 76.2182L98.0411 74.7141V73.602H91.9129C91.3702 73.602 90.9304 73.1622 90.9304 72.6196C90.9304 72.077 91.3702 71.6372 91.9129 71.6372H98.0411V69.1008C98.0411 68.762 97.765 68.4858 97.4261 68.4858H91.9129C91.3702 68.4858 90.9304 68.046 90.9304 67.5034ZM91.9129 67.021C91.6463 67.021 91.4304 67.237 91.4304 67.5034C91.4304 67.7698 91.6463 67.9858 91.9129 67.9858H97.4261C98.0411 67.9858 98.5411 68.4858 98.5411 69.1008V72.1372H91.9129C91.6463 72.1372 91.4304 72.3532 91.4304 72.6196C91.4304 72.886 91.6463 73.102 91.9129 73.102H98.5411V74.9185L96.9213 76.5685C96.8328 76.6587 96.7831 76.7801 96.7831 76.9064V81.3986C96.7831 81.665 96.9991 81.8811 97.2656 81.8811H100.782C101.048 81.8811 101.264 81.665 101.264 81.3986V76.9064C101.264 76.7801 101.214 76.6587 101.126 76.5685L99.506 74.9185V73.102H105.578C106.795 73.102 107.785 74.0918 107.785 75.309V87.1014H105.043C104.777 87.1014 104.561 87.3174 104.561 87.5838C104.561 87.8502 104.777 88.0662 105.043 88.0662H107.785V90.4963H91.9128C91.6462 90.4963 91.4303 90.7123 91.4303 90.9787C91.4303 91.2451 91.6462 91.4611 91.9128 91.4611H107.785V92.4221C107.785 93.6393 106.795 94.629 105.578 94.629H91.9128C91.6462 94.629 91.4303 94.845 91.4303 95.1114C91.4303 95.3778 91.6462 95.5938 91.9128 95.5938H102.166V96.8027C102.166 97.8763 103.039 98.75 104.113 98.75C105.187 98.75 106.06 97.8763 106.06 96.8027V95.5638L106.257 95.5207C107.681 95.2089 108.75 93.9373 108.75 92.422V75.309C108.75 73.5603 107.327 72.1372 105.578 72.1372H99.506V69.1008C99.506 67.9542 98.5728 67.021 97.4261 67.021H91.9129ZM99.0235 75.8045L100.299 77.1037V80.9162H97.748V77.1037L99.0235 75.8045ZM98.248 77.3081V80.4162H99.799V77.3081L99.0235 76.5182L98.248 77.3081ZM103.13 95.5937H105.095V96.5526L105.095 96.8026C105.095 97.3447 104.655 97.7851 104.113 97.7851C103.571 97.7851 103.13 97.3447 103.13 96.8026V95.5937ZM104.595 96.8124V96.0937H103.63V96.8026C103.63 97.0684 103.847 97.2851 104.113 97.2851C104.375 97.2851 104.59 97.0737 104.595 96.8124Z" fill="#3035C4"/>
<path d="M91.9128 88.3164H101.658C102.063 88.3164 102.391 87.9885 102.391 87.584C102.391 87.1795 102.063 86.8516 101.658 86.8516H91.9128C91.5082 86.8516 91.1803 87.1795 91.1803 87.584C91.1803 87.9885 91.5082 88.3164 91.9128 88.3164Z" fill="#3035C4"/>
<path fill-rule="evenodd" clip-rule="evenodd" d="M90.9303 87.584C90.9303 87.0414 91.3701 86.6016 91.9128 86.6016H101.658C102.201 86.6016 102.641 87.0414 102.641 87.584C102.641 88.1266 102.201 88.5664 101.658 88.5664H91.9128C91.3701 88.5664 90.9303 88.1266 90.9303 87.584ZM91.9128 87.1016C91.6462 87.1016 91.4303 87.3176 91.4303 87.584C91.4303 87.8504 91.6462 88.0664 91.9128 88.0664H101.658C101.925 88.0664 102.141 87.8504 102.141 87.584C102.141 87.3176 101.925 87.1016 101.658 87.1016H91.9128Z" fill="#3035C4"/>
</g>
<defs>
<filter id="filter0_d_2119:938" x="0" y="0" width="168" height="168" filterUnits="userSpaceOnUse" color-interpolation-filters="sRGB">
<feFlood flood-opacity="0" result="BackgroundImageFix"/>
<feColorMatrix in="SourceAlpha" type="matrix" values="0 0 0 0 0 0 0 0 0 0 0 0 0 0 0 0 0 0 127 0" result="hardAlpha"/>
<feOffset dy="10"/>
<feGaussianBlur stdDeviation="12"/>
<feColorMatrix type="matrix" values="0 0 0 0 0.286753 0 0 0 0 0.37354 0 0 0 0 0.829167 0 0 0 0.12 0"/>
<feBlend mode="normal" in2="BackgroundImageFix" result="effect1_dropShadow_2119:938"/>
<feBlend mode="normal" in="SourceGraphic" in2="effect1_dropShadow_2119:938" result="shape"/>
</filter>
<clipPath id="clip0_2119:938">
<rect width="50" height="50" fill="white" transform="translate(59 49)"/>
</clipPath>
</defs>
</svg>
