<svg width="16" height="18" viewBox="0 0 16 18" fill="none" xmlns="http://www.w3.org/2000/svg">
<path d="M8 2C3.58182 2 0 5.58182 0 10C0 14.4182 3.58182 18 8 18C12.4182 18 16 14.4182 16 10C16 5.58182 12.4182 2 8 2ZM12.4891 7.49091C11.6073 8.37455 11.0127 8.88909 9.35636 10.8873C8.4 12.04 7.49636 13.2782 7.48909 13.2873L7.09273 13.7818C7.00909 13.8927 6.84727 13.9055 6.74545 13.8109L3.56182 10.8527C3.23818 10.5527 3.22 10.0455 3.52 9.72182C3.82 9.39818 4.32727 9.38 4.65091 9.68L6.55818 11.4527C6.65818 11.5455 6.81454 11.5345 6.90182 11.4291C7.19636 11.0636 7.6 10.62 8.03636 10.1818C9.67636 8.52909 10.6836 7.64182 11.2218 7.24909C11.8764 6.77273 12.6273 6.36545 12.8091 6.59091C13.0909 6.94364 12.9182 7.06 12.4891 7.49091Z" fill="#E6514A"/>
</svg>
