<svg width="37" height="40" viewBox="0 0 37 40" fill="none" xmlns="http://www.w3.org/2000/svg">
<path d="M25.9771 14.9796C29.8535 14.9796 32.996 11.8502 32.996 7.98981C32.996 4.12944 29.8535 1 25.9771 1C22.1006 1 18.9581 4.12944 18.9581 7.98981C18.9581 11.8502 22.1006 14.9796 25.9771 14.9796Z" stroke="#23283B" stroke-width="0.83" stroke-miterlimit="10"/>
<path d="M29.4433 10.118C28.5092 10.9212 27.3221 11.3731 26.0882 11.3952C24.8543 11.4173 23.6516 11.0082 22.6891 10.2391" stroke="#23283B" stroke-width="0.83" stroke-miterlimit="10" stroke-linecap="round"/>
<path d="M23.671 6.40914C23.671 6.56269 23.5454 6.69072 23.3861 6.69072C23.2268 6.69072 23.1013 6.56269 23.1013 6.40914C23.1013 6.25559 23.2268 6.12756 23.3861 6.12756C23.5454 6.12756 23.671 6.25559 23.671 6.40914Z" fill="#23283B" stroke="#23283B"/>
<path d="M29.1851 6.40914C29.1851 6.56269 29.0596 6.69072 28.9003 6.69072C28.741 6.69072 28.6154 6.56269 28.6154 6.40914C28.6154 6.25559 28.741 6.12756 28.9003 6.12756C29.0596 6.12756 29.1851 6.25559 29.1851 6.40914Z" fill="#23283B" stroke="#23283B"/>
<path d="M10.6923 18.3131C14.5688 18.3131 17.7113 15.1836 17.7113 11.3233C17.7113 7.46291 14.5688 4.33347 10.6923 4.33347C6.81582 4.33347 3.67332 7.46291 3.67332 11.3233C3.67332 15.1836 6.81582 18.3131 10.6923 18.3131Z" stroke="#23283B" stroke-width="0.83" stroke-miterlimit="10"/>
<path d="M14.1599 13.4528C13.2253 14.2551 12.0382 14.7063 10.8045 14.7281C9.57084 14.75 8.36837 14.3411 7.4057 13.5725" stroke="#23283B" stroke-width="0.83" stroke-miterlimit="10" stroke-linecap="round"/>
<path d="M8.38621 9.74264C8.38621 9.89619 8.26064 10.0242 8.10137 10.0242C7.94209 10.0242 7.81653 9.89619 7.81653 9.74264C7.81653 9.58909 7.94209 9.46106 8.10137 9.46106C8.26064 9.46106 8.38621 9.58909 8.38621 9.74264Z" fill="#23283B" stroke="#23283B"/>
<path d="M13.9003 9.74264C13.9003 9.89619 13.7748 10.0242 13.6155 10.0242C13.4562 10.0242 13.3307 9.89619 13.3307 9.74264C13.3307 9.58909 13.4562 9.46106 13.6155 9.46106C13.7748 9.46106 13.9003 9.58909 13.9003 9.74264Z" fill="#23283B" stroke="#23283B"/>
<path d="M35.6707 27.2306C35.6707 21.691 30.9211 16.9732 30.1079 15.9065C29.0273 17.2423 26.9321 17.5208 25.9771 17.5719C25.022 17.5167 22.9269 17.2423 21.8475 15.9065C21.037 16.9732 16.2848 21.691 16.2848 27.2306C16.2848 31.2569 18.6663 35.6369 25.4799 36.0244V36.0553C25.6502 36.0553 25.8136 36.0553 25.9771 36.0459C26.1405 36.0365 26.3053 36.0553 26.4742 36.0553V36.0244C33.2959 35.6369 35.6707 31.2569 35.6707 27.2306Z" fill="white"/>
<path d="M35.6707 27.279C35.6707 25.4549 35.3532 24.3088 34.6332 22.7631C33.1662 19.6166 18.5582 19.9179 17.0912 22.8384C16.2591 24.4931 16.2807 25.2746 16.2807 27.2777C16.2807 31.304 18.6622 35.6827 25.4759 36.0714V36.1024C25.6461 36.1024 25.8095 36.1024 25.973 36.093C26.1364 36.0836 26.3012 36.1024 26.4701 36.1024V36.0714C33.2959 35.684 35.6707 31.3053 35.6707 27.279Z" fill="#3035C4"/>
<path d="M16.3361 28.3081C17.3398 31.573 19.2445 35.7176 25.4799 36.0728V36.1037C25.6502 36.1037 25.8136 36.1037 25.9771 36.0943C26.1405 36.0849 26.3053 36.1037 26.4742 36.1037V36.0728C32.7069 35.7176 35.5667 31.0174 35.618 28.9027C33.5296 26.3199 21.0195 26.3199 16.3361 28.3081Z" fill="#E6514A"/>
<path opacity="0.33" d="M26.0608 33.6863C21.9137 33.272 18.85 29.9762 19.2188 26.3266C18.4434 26.1921 18.1179 26.7988 17.7126 26.9306C17.3438 30.5802 20.4143 33.876 24.5546 34.2904C26.1605 34.4606 27.781 34.154 29.2123 33.4092C28.1891 33.7004 27.1194 33.7944 26.0608 33.6863Z" fill="white"/>
<path d="M35.6707 27.2306C35.6707 21.691 30.9211 16.9732 30.1079 15.9065C29.0273 17.2423 26.9321 17.5208 25.9771 17.5719C25.022 17.5167 22.9269 17.2423 21.8475 15.9065C21.037 16.9732 16.2848 21.691 16.2848 27.2306C16.2848 31.2569 18.6663 35.6369 25.4799 36.0244V36.0553C25.6502 36.0553 25.8136 36.0553 25.9771 36.0459C26.1405 36.0365 26.3053 36.0553 26.4742 36.0553V36.0244C33.2959 35.6369 35.6707 31.2569 35.6707 27.2306Z" stroke="#23283B" stroke-width="0.83" stroke-linejoin="round"/>
<path d="M20.3859 30.1766C20.3859 24.637 15.6364 19.9193 14.8232 18.8525C13.7425 20.1883 11.6473 20.4668 10.6923 20.5166C9.73724 20.4627 7.64209 20.1883 6.56276 18.8525C5.75226 19.9193 1 24.637 1 30.1766C1 34.2016 3.38153 38.5816 10.1965 38.969V39C10.3654 39 10.5288 39 10.6923 38.9906C10.8557 38.9812 11.0205 39 11.1894 39V38.969C18.0044 38.5816 20.3859 34.2016 20.3859 30.1766Z" fill="#E6514A" stroke="#23283B" stroke-width="0.83" stroke-linejoin="round"/>
<path fill-rule="evenodd" clip-rule="evenodd" d="M10.9989 28.3135L11.6217 29.1395L12.6024 28.8059L12.0053 29.6507L12.628 30.4766L11.6365 30.1726L11.0395 31.0174L11.0246 29.9843L10.0331 29.6803L11.0151 29.3467L10.9989 28.3135Z" fill="white"/>
<path d="M10.1141 33.4778C9.11743 33.4778 8.16156 33.0835 7.45679 32.3817C6.75202 31.6799 6.35608 30.728 6.35608 29.7354C6.35608 28.7429 6.75202 27.791 7.45679 27.0891C8.16156 26.3873 9.11743 25.993 10.1141 25.993C10.5227 25.9932 10.9284 26.0605 11.315 26.1921C10.6107 25.7438 9.79266 25.5047 8.95677 25.5027C8.12087 25.5008 7.30173 25.7361 6.59529 26.181C5.88884 26.626 5.32435 27.2622 4.96795 28.0152C4.61154 28.7682 4.47797 29.6067 4.58288 30.4325C4.68779 31.2584 5.02685 32.0373 5.56032 32.6782C6.0938 33.319 6.79961 33.7952 7.59507 34.051C8.39054 34.3067 9.24271 34.3315 10.0518 34.1223C10.8609 33.9131 11.5933 33.4786 12.1634 32.8698C11.554 33.2663 10.842 33.4776 10.1141 33.4778Z" fill="white"/>
</svg>
