<svg width="170" height="40" viewBox="0 0 170 40" fill="none" xmlns="http://www.w3.org/2000/svg">
<path d="M45.4332 8.1473L44.7578 8.85489V10.9454C44.7599 11.016 44.7473 11.0862 44.7208 11.1517C44.6943 11.2173 44.6544 11.2766 44.6038 11.3261C44.5529 11.3785 44.4918 11.4202 44.4242 11.4484C44.3566 11.4766 44.284 11.4908 44.2107 11.4902C44.1398 11.4897 44.0697 11.475 44.0047 11.4468C43.9397 11.4185 43.8811 11.3775 43.8325 11.3261C43.782 11.2765 43.7424 11.2172 43.7162 11.1516C43.6899 11.0861 43.6775 11.0159 43.6798 10.9454V4.35376C43.6841 4.21211 43.7381 4.07643 43.8325 3.97037C43.9379 3.87628 44.0733 3.82242 44.2148 3.81836C44.3575 3.82239 44.4942 3.87619 44.6011 3.97037C44.698 4.07876 44.7526 4.21812 44.7551 4.36318V7.30923L47.7837 4.08068C47.8249 4.02447 47.8771 3.97722 47.9373 3.94182C47.9975 3.90643 48.0642 3.88365 48.1336 3.87486C48.205 3.86249 48.2783 3.86583 48.3483 3.88465C48.4183 3.90348 48.4833 3.93732 48.5388 3.98382C48.5954 4.02482 48.643 4.07684 48.6788 4.13674C48.7145 4.19664 48.7377 4.26315 48.7468 4.33224C48.7589 4.40338 48.7554 4.47628 48.7365 4.54594C48.7176 4.6156 48.6838 4.68037 48.6374 4.7358L46.187 7.36438L48.6685 10.6077C48.7181 10.6597 48.7558 10.7216 48.7791 10.7894C48.8024 10.8572 48.8108 10.9292 48.8036 11.0005C48.7844 11.1464 48.7082 11.2789 48.5915 11.3691C48.4959 11.4461 48.3768 11.4884 48.2538 11.4889C48.1739 11.4902 48.0948 11.4732 48.0227 11.4391C47.9505 11.4051 47.8872 11.3549 47.8377 11.2924L45.4332 8.1473Z" fill="white"/>
<path d="M52.1456 8.52888L49.9261 11.2503C49.8762 11.314 49.8125 11.3657 49.7398 11.4016C49.6671 11.4375 49.5872 11.4565 49.506 11.4574C49.3861 11.4559 49.2703 11.4137 49.1778 11.3377C49.1205 11.297 49.0721 11.2452 49.0357 11.1853C48.9992 11.1254 48.9754 11.0587 48.9657 10.9893C48.9532 10.9182 48.9565 10.8451 48.9754 10.7754C48.9943 10.7057 49.0283 10.6409 49.0751 10.5857L51.458 7.64641L49.1008 4.72861C49.0545 4.67313 49.0207 4.60836 49.0019 4.53871C48.983 4.46907 48.9794 4.39619 48.9914 4.32504C48.9967 4.25461 49.0176 4.18622 49.0526 4.12481C49.0877 4.0634 49.1359 4.01049 49.194 3.9699C49.2476 3.92439 49.3106 3.89106 49.3785 3.87225C49.4463 3.85343 49.5175 3.84957 49.5871 3.86094C49.7295 3.88159 49.8585 3.95571 49.9477 4.0681L52.1456 6.76798L54.2988 4.06407C54.3881 3.95168 54.5171 3.87755 54.6595 3.8569C54.7292 3.8456 54.8006 3.84949 54.8687 3.86831C54.9368 3.88712 55 3.9204 55.0539 3.96587C55.1131 4.0066 55.1624 4.05999 55.1981 4.12214C55.2339 4.18429 55.2552 4.25361 55.2606 4.32504C55.2728 4.39619 55.2694 4.46913 55.2505 4.53882C55.2316 4.60851 55.1977 4.67327 55.1512 4.72861L52.8345 7.64641L52.1456 8.52888Z" fill="white"/>
<path d="M58.7268 3.84591C59.0101 3.84964 59.2897 3.91017 59.5489 4.02388C59.8082 4.1376 60.0417 4.30216 60.2357 4.50776C60.6287 4.90156 60.852 5.43249 60.8581 5.98768C60.8641 6.54287 60.6525 7.07851 60.2681 7.48071C59.8736 7.89434 59.3407 8.14986 58.77 8.19906C58.7637 8.20534 58.1405 8.20893 56.9005 8.20983V10.9003C56.9023 10.9717 56.8886 11.0427 56.8604 11.1084C56.8322 11.1741 56.7901 11.2329 56.737 11.281C56.6878 11.3328 56.6286 11.374 56.5629 11.4022C56.4971 11.4305 56.4263 11.445 56.3547 11.4451C56.2119 11.4418 56.0756 11.3842 55.974 11.2842C55.8723 11.1842 55.8128 11.0492 55.8076 10.907V4.39072C55.8069 4.31785 55.8209 4.24558 55.849 4.17829C55.8771 4.111 55.9187 4.05009 55.9711 3.99926C56.0211 3.94888 56.0809 3.90926 56.1469 3.88288C56.2129 3.8565 56.2837 3.84392 56.3547 3.84591H58.7268ZM58.639 7.12288C58.7876 7.12578 58.9352 7.09812 59.0725 7.04164C59.2099 6.98517 59.3341 6.90108 59.4374 6.79465C59.6451 6.58626 59.765 6.30663 59.7724 6.01307C59.7631 5.72149 59.6417 5.44459 59.4333 5.23956C59.328 5.13749 59.2029 5.05789 59.0656 5.00561C58.9283 4.95334 58.7818 4.9295 58.635 4.93554H56.9005V7.12288H58.639Z" fill="white"/>
<path d="M68.0517 6.50269C67.9276 6.56962 67.7822 6.58555 67.6465 6.54708C67.5802 6.5323 67.5181 6.50302 67.4646 6.46138C67.4111 6.41973 67.3675 6.36675 67.3371 6.30629C66.7914 5.3996 66.0079 4.94626 64.9867 4.94626C64.2624 4.95116 63.5691 5.23911 63.0559 5.74811C62.5428 6.25711 62.2509 6.94644 62.2431 7.66766C62.2374 8.02388 62.3066 8.37736 62.4462 8.70539C62.5858 9.03343 62.7927 9.32878 63.0536 9.5725C63.3081 9.82313 63.6103 10.0206 63.9425 10.1535C64.2747 10.2863 64.6301 10.3518 64.988 10.346C65.4358 10.3479 65.8769 10.2368 66.27 10.0232C66.672 9.80401 67.0139 9.48989 67.2655 9.1084C67.2978 9.04282 67.3459 8.98624 67.4056 8.94374C67.4652 8.90124 67.5345 8.87416 67.6073 8.86491C67.675 8.84883 67.7458 8.85041 67.8128 8.86949C67.8797 8.88858 67.9406 8.92453 67.9896 8.97388C68.055 9.00388 68.113 9.0477 68.1596 9.10229C68.2063 9.15688 68.2405 9.22094 68.2597 9.29C68.2832 9.35813 68.2885 9.43119 68.275 9.50196C68.2615 9.57273 68.2297 9.63878 68.1827 9.69357C67.8398 10.2335 67.3666 10.6793 66.8062 10.9904C66.2492 11.3032 65.6194 11.4646 64.9799 11.4585C64.4761 11.4647 63.9763 11.3695 63.5104 11.1786C63.0445 10.9876 62.6222 10.7049 62.2688 10.3474C61.901 10.0047 61.6091 9.58942 61.4118 9.12797C61.2146 8.66652 61.1163 8.16913 61.1233 7.66766C61.1153 7.15964 61.2132 6.65549 61.4108 6.18707C61.6085 5.71865 61.9015 5.29615 62.2715 4.94626C62.868 4.35691 63.642 3.97828 64.475 3.86823C65.308 3.75819 66.1543 3.92279 66.8846 4.33687C67.4623 4.65852 67.9356 5.13785 68.2489 5.71842C68.294 5.78674 68.3241 5.86371 68.3373 5.94435C68.3506 6.02499 68.3467 6.10751 68.3259 6.18656C68.3063 6.25605 68.2715 6.32039 68.2242 6.37503C68.1768 6.42966 68.1179 6.47324 68.0517 6.50269Z" fill="white"/>
<path d="M69.616 11.4464C69.5442 11.449 69.4727 11.4367 69.406 11.4103C69.3392 11.3839 69.2787 11.344 69.2283 11.2931C69.1758 11.2422 69.1343 11.1813 69.1062 11.1141C69.0781 11.0468 69.064 10.9745 69.0648 10.9016V4.39071C69.0615 4.31909 69.0745 4.24766 69.1028 4.18174C69.1311 4.11583 69.174 4.05712 69.2283 4.01001C69.2767 3.95694 69.336 3.91483 69.4022 3.88651C69.4684 3.8582 69.5399 3.84435 69.6119 3.84589C69.6835 3.84595 69.7543 3.86054 69.82 3.88875C69.8858 3.91697 69.945 3.95823 69.9942 4.01001C70.0485 4.05712 70.0913 4.11583 70.1196 4.18174C70.148 4.24766 70.1609 4.31909 70.1577 4.39071V7.08117C71.3977 7.08117 72.0209 7.08475 72.0272 7.09193C72.5979 7.14113 73.1308 7.39665 73.5253 7.81028C73.9101 8.20304 74.1224 8.73194 74.1156 9.28061C74.1086 9.8456 73.8832 10.3862 73.4861 10.7898C73.0891 11.1935 72.5511 11.4291 71.984 11.4478L69.616 11.4464ZM70.1563 8.16811V10.3568H71.8948C72.0417 10.3628 72.1882 10.339 72.3255 10.2867C72.4627 10.2345 72.5879 10.1548 72.6932 10.0528C72.9016 9.84775 73.023 9.57085 73.0322 9.27927C73.0245 8.9842 72.9031 8.70341 72.6932 8.495C72.5898 8.38881 72.4656 8.30497 72.3282 8.24873C72.1909 8.19249 72.0433 8.16504 71.8948 8.16811H70.1563ZM74.4533 4.34766C74.4533 4.20495 74.5103 4.06809 74.6116 3.96717C74.7129 3.86626 74.8504 3.80957 74.9937 3.80957C75.1404 3.8132 75.2807 3.87014 75.3881 3.96965C75.4825 4.07518 75.5365 4.21044 75.5408 4.3517V10.9231C75.5427 10.9936 75.5301 11.0637 75.5039 11.1292C75.4776 11.1946 75.4382 11.2541 75.3881 11.3038C75.3389 11.3556 75.2797 11.3969 75.2139 11.4251C75.1482 11.4533 75.0774 11.4679 75.0058 11.468C74.8641 11.4629 74.7296 11.4046 74.6293 11.3048C74.5291 11.2049 74.4705 11.071 74.4655 10.9299L74.4533 4.34766Z" fill="white"/>
<path d="M84.1997 3.8252C84.3414 3.82939 84.4769 3.88377 84.582 3.97855C84.6799 4.08738 84.7346 4.22796 84.736 4.37405C84.7318 4.51515 84.6772 4.65014 84.582 4.75475C84.4768 4.84915 84.3413 4.90305 84.1997 4.90676H82.5382V10.924C82.5402 10.9946 82.5275 11.0648 82.501 11.1303C82.4745 11.1958 82.4347 11.2551 82.3842 11.3047C82.3352 11.3567 82.276 11.3981 82.2102 11.4264C82.1444 11.4546 82.0735 11.469 82.0019 11.4688C81.8602 11.4638 81.7257 11.4055 81.6254 11.3056C81.5251 11.2058 81.4666 11.0718 81.4616 10.9307V4.90272H79.8041C79.7333 4.90478 79.6628 4.89236 79.5971 4.86621C79.5313 4.84006 79.4717 4.80075 79.4218 4.75071C79.3703 4.70223 79.3293 4.64384 79.3012 4.57909C79.2731 4.51434 79.2585 4.44458 79.2583 4.37405C79.2575 4.30118 79.2716 4.2289 79.2997 4.16161C79.3278 4.09432 79.3693 4.03341 79.4218 3.98259C79.4716 3.93237 79.5312 3.89285 79.597 3.86648C79.6627 3.8401 79.7332 3.82742 79.8041 3.82923L84.1997 3.8252Z" fill="white"/>
<path d="M88.1022 8.52939L85.8828 11.2508C85.8323 11.3152 85.7678 11.3674 85.6941 11.4033C85.6203 11.4392 85.5394 11.4579 85.4573 11.4579C85.3373 11.4568 85.2214 11.4146 85.1291 11.3382C85.0724 11.2973 85.0247 11.2453 84.9889 11.1854C84.9531 11.1255 84.93 11.0589 84.921 10.9898C84.9091 10.9187 84.9128 10.8458 84.9316 10.7762C84.9505 10.7065 84.9842 10.6418 85.0304 10.5862L87.4133 7.64692L85.0521 4.72912C85.0058 4.67364 84.972 4.60887 84.9531 4.53922C84.9343 4.46958 84.9307 4.3967 84.9426 4.32555C84.9602 4.18417 85.0333 4.0555 85.146 3.96774C85.2587 3.87998 85.4017 3.84031 85.5438 3.85741C85.6861 3.87806 85.8152 3.95218 85.9044 4.06458L88.1022 6.76445L90.2568 4.06458C90.3461 3.95218 90.4751 3.87806 90.6175 3.85741C90.7595 3.84031 90.9026 3.87998 91.0153 3.96774C91.1279 4.0555 91.2011 4.18417 91.2186 4.32555C91.2306 4.3967 91.227 4.46958 91.2081 4.53922C91.1893 4.60887 91.1555 4.67364 91.1092 4.72912L88.7912 7.64692L88.1022 8.52939Z" fill="white"/>
<path d="M94.6836 3.8459C94.9668 3.84963 95.2464 3.91016 95.5057 4.02388C95.7649 4.13759 95.9985 4.30216 96.1925 4.50775C96.3929 4.70328 96.5514 4.93725 96.6584 5.19552C96.7655 5.45379 96.8188 5.731 96.8152 6.01037C96.8189 6.28209 96.7686 6.55185 96.6673 6.80417C96.566 7.05649 96.4156 7.28641 96.2249 7.48071C95.8307 7.89404 95.2984 8.14954 94.7281 8.19906C94.72 8.20534 94.0968 8.20893 92.8586 8.20982V10.9003C92.8601 10.9718 92.8462 11.0428 92.8177 11.1085C92.7893 11.1742 92.747 11.233 92.6938 11.281C92.6447 11.3329 92.5854 11.3742 92.5197 11.4025C92.4539 11.4307 92.3831 11.4452 92.3115 11.4451C92.17 11.4395 92.0358 11.381 91.9357 11.2812C91.8355 11.1815 91.7768 11.0479 91.7711 10.907V4.39072C91.7705 4.31775 91.7848 4.24542 91.8131 4.17812C91.8415 4.11083 91.8832 4.04997 91.9359 3.99926C91.9857 3.94891 92.0453 3.90931 92.111 3.88292C92.1768 3.85654 92.2473 3.84394 92.3182 3.8459H94.6836ZM94.5971 7.12288C94.7455 7.12559 94.8928 7.09784 95.0299 7.04137C95.167 6.9849 95.291 6.90091 95.3941 6.79464C95.6045 6.58655 95.726 6.30556 95.7332 6.01037C95.7246 5.71864 95.6031 5.4415 95.3941 5.23687C95.289 5.13496 95.164 5.05546 95.027 5.00319C94.89 4.95092 94.7437 4.92699 94.5971 4.93285H92.8586V7.12288H94.5971Z" fill="white"/>
<path d="M101.513 10.3568C101.655 10.361 101.791 10.4154 101.896 10.5102C101.948 10.561 101.99 10.6219 102.018 10.6892C102.046 10.7565 102.06 10.8288 102.059 10.9016C102.061 10.973 102.047 11.044 102.019 11.1097C101.991 11.1754 101.949 11.2343 101.896 11.2823C101.847 11.3341 101.787 11.3754 101.722 11.4036C101.656 11.4318 101.585 11.4464 101.513 11.4464H97.7014C97.5599 11.4408 97.4257 11.3823 97.3256 11.2826C97.2254 11.1829 97.1667 11.0493 97.161 10.9083V4.39072C97.1604 4.31775 97.1747 4.24542 97.203 4.17812C97.2314 4.11083 97.2731 4.04997 97.3258 3.99926C97.3756 3.94891 97.4352 3.90931 97.5009 3.88292C97.5667 3.85654 97.6372 3.84394 97.7081 3.8459H101.513C101.655 3.8501 101.791 3.90447 101.896 3.99926C101.948 4.05009 101.99 4.11099 102.018 4.17828C102.046 4.24557 102.06 4.31785 102.059 4.39072C102.062 4.46273 102.05 4.53455 102.022 4.60121C101.995 4.66786 101.953 4.72778 101.9 4.7768C101.85 4.8281 101.79 4.86865 101.723 4.89595C101.657 4.92325 101.585 4.93672 101.513 4.93554H98.2444V7.12288H100.737C100.878 7.12707 101.014 7.18145 101.119 7.27623C101.172 7.32695 101.213 7.3878 101.242 7.4551C101.27 7.52239 101.284 7.59473 101.284 7.6677C101.285 7.73921 101.271 7.81021 101.243 7.87589C101.215 7.94158 101.172 8.0004 101.119 8.04839C101.07 8.1003 101.011 8.14164 100.945 8.16987C100.879 8.1981 100.808 8.21261 100.737 8.21251H98.2485V10.3568H101.513Z" fill="white"/>
<path d="M108.284 11.4571H103.269C103.198 11.4585 103.126 11.4446 103.06 11.4163C102.995 11.388 102.935 11.3459 102.887 11.293C102.835 11.244 102.794 11.185 102.766 11.1195C102.738 11.054 102.723 10.9835 102.724 10.9123V4.40138C102.721 4.32977 102.734 4.25837 102.762 4.19247C102.79 4.12657 102.833 4.06785 102.887 4.02068C102.935 3.96771 102.995 3.92565 103.06 3.89734C103.126 3.86903 103.198 3.85513 103.269 3.85656C103.341 3.85644 103.412 3.87093 103.478 3.89916C103.544 3.92738 103.604 3.96873 103.653 4.02068C103.706 4.06849 103.748 4.12749 103.775 4.19336C103.802 4.25923 103.814 4.3303 103.81 4.40138V10.3675H107.187V4.40138C107.184 4.32977 107.197 4.25837 107.225 4.19247C107.253 4.12657 107.296 4.06785 107.35 4.02068C107.399 3.96761 107.458 3.92549 107.524 3.89718C107.59 3.86887 107.662 3.85502 107.734 3.85656C107.806 3.85662 107.876 3.87121 107.942 3.89942C108.008 3.92764 108.067 3.9689 108.116 4.02068C108.17 4.06785 108.213 4.12657 108.242 4.19247C108.27 4.25837 108.283 4.32977 108.28 4.40138V10.3675H108.838C108.983 10.3701 109.122 10.4245 109.231 10.5208C109.326 10.6253 109.381 10.7604 109.385 10.9015V12.6866C109.387 12.7572 109.374 12.8275 109.348 12.893C109.321 12.9585 109.281 13.0178 109.231 13.0673C109.127 13.1716 108.985 13.2306 108.838 13.2315C108.764 13.2321 108.692 13.2178 108.624 13.1896C108.557 13.1614 108.495 13.1198 108.445 13.0673C108.391 13.0193 108.349 12.9605 108.321 12.8948C108.292 12.8292 108.278 12.7581 108.28 12.6866L108.284 11.4571Z" fill="white"/>
<path d="M111.695 8.1473L111.019 8.85489V10.9454C111.021 11.016 111.009 11.0862 110.982 11.1517C110.956 11.2173 110.916 11.2766 110.865 11.3261C110.814 11.3785 110.753 11.4202 110.686 11.4484C110.618 11.4766 110.545 11.4908 110.472 11.4902C110.401 11.4903 110.33 11.4758 110.264 11.4476C110.198 11.4193 110.139 11.378 110.09 11.3261C110.039 11.2766 109.999 11.2173 109.973 11.1517C109.946 11.0862 109.934 11.016 109.936 10.9454V4.35376C109.94 4.21213 109.994 4.07649 110.089 3.97037C110.194 3.87628 110.329 3.82242 110.471 3.81836C110.616 3.82128 110.755 3.87512 110.864 3.97037C110.961 4.07876 111.015 4.21812 111.018 4.36318V7.30923L114.045 4.08068C114.087 4.02463 114.139 3.9775 114.199 3.94213C114.259 3.90676 114.326 3.88387 114.395 3.87486C114.466 3.86267 114.54 3.86611 114.61 3.88492C114.68 3.90374 114.745 3.93748 114.8 3.98382C114.857 4.02498 114.904 4.07705 114.94 4.13692C114.976 4.19679 114.999 4.26322 115.008 4.33224C115.02 4.40338 115.017 4.47628 114.998 4.54594C114.979 4.6156 114.945 4.68037 114.899 4.7358L112.455 7.36438L114.937 10.6077C114.986 10.6597 115.024 10.7216 115.047 10.7894C115.071 10.8572 115.079 10.9292 115.072 11.0005C115.062 11.0732 115.037 11.1431 115 11.2064C114.963 11.2696 114.913 11.3249 114.854 11.3691C114.758 11.4464 114.639 11.4887 114.515 11.4889C114.436 11.4901 114.357 11.473 114.285 11.439C114.213 11.4049 114.15 11.3548 114.101 11.2924L111.695 8.1473Z" fill="white"/>
<path d="M119.119 11.4463C118.618 11.4538 118.121 11.3569 117.659 11.1619C117.198 10.9668 116.783 10.6779 116.44 10.3136C116.084 9.96017 115.803 9.53907 115.613 9.0753C115.423 8.61153 115.329 8.11452 115.335 7.61375C115.331 7.1198 115.427 6.63011 115.617 6.17374C115.807 5.71736 116.087 5.30358 116.44 4.95693C116.791 4.60482 117.208 4.32535 117.668 4.13462C118.127 3.9439 118.62 3.8457 119.118 3.8457C119.616 3.8457 120.109 3.9439 120.569 4.13462C121.028 4.32535 121.446 4.60482 121.796 4.95693C122.15 5.30358 122.43 5.71736 122.619 6.17374C122.809 6.63011 122.905 7.1198 122.901 7.61375C122.908 8.11452 122.814 8.61153 122.624 9.0753C122.434 9.53907 122.153 9.96017 121.796 10.3136C121.454 10.6779 121.039 10.9668 120.578 11.1618C120.117 11.3569 119.62 11.4538 119.119 11.4463ZM119.119 4.90178C118.397 4.90249 117.705 5.18844 117.194 5.69688C116.683 6.20532 116.396 6.89471 116.396 7.61375C116.387 7.97911 116.453 8.34243 116.59 8.68136C116.727 9.02028 116.933 9.32764 117.194 9.58451C117.445 9.83852 117.745 10.0402 118.075 10.1779C118.406 10.3156 118.76 10.3865 119.118 10.3865C119.476 10.3865 119.831 10.3156 120.161 10.1779C120.492 10.0402 120.791 9.83852 121.043 9.58451C121.302 9.32601 121.508 9.01863 121.647 8.68028C121.786 8.34192 121.856 7.97937 121.853 7.61375C121.856 7.25606 121.786 6.90145 121.647 6.57177C121.508 6.24209 121.302 5.94432 121.043 5.6968C120.793 5.44046 120.494 5.23767 120.163 5.10093C119.833 4.9642 119.477 4.89642 119.119 4.90178Z" fill="white"/>
<path d="M124.595 4.9462V10.9123C124.596 10.9852 124.582 11.0574 124.554 11.1247C124.526 11.192 124.484 11.2529 124.432 11.3037C124.327 11.3985 124.191 11.4529 124.05 11.4571C123.979 11.4589 123.908 11.4462 123.842 11.4199C123.777 11.3935 123.717 11.354 123.667 11.3037C123.615 11.2529 123.573 11.192 123.545 11.1247C123.517 11.0574 123.503 10.9852 123.504 10.9123V4.40138C123.501 4.32977 123.514 4.25837 123.542 4.19247C123.57 4.12657 123.613 4.06785 123.667 4.02068C123.716 3.96761 123.775 3.92549 123.841 3.89718C123.907 3.86887 123.979 3.85502 124.051 3.85656H127.855C127.926 3.85646 127.997 3.87098 128.063 3.8992C128.129 3.92743 128.188 3.96877 128.237 4.02068C128.29 4.06843 128.332 4.12738 128.359 4.19324C128.387 4.2591 128.399 4.33021 128.395 4.40138C128.396 4.47457 128.382 4.54716 128.353 4.6147C128.325 4.68224 128.283 4.74332 128.23 4.79418C128.127 4.88682 127.994 4.94058 127.855 4.9462H124.595Z" fill="white"/>
<path d="M132.456 11.4464C131.955 11.4539 131.458 11.3571 130.996 11.162C130.535 10.9669 130.12 10.678 129.777 10.3137C129.421 9.96021 129.14 9.53907 128.95 9.0753C128.761 8.61152 128.667 8.11455 128.673 7.61387C128.669 7.11999 128.765 6.63034 128.955 6.17396C129.144 5.71758 129.424 5.30376 129.777 4.95704C130.128 4.6049 130.545 4.32539 131.005 4.13465C131.465 3.94391 131.958 3.8457 132.456 3.8457C132.954 3.8457 133.447 3.94391 133.907 4.13465C134.366 4.32539 134.784 4.6049 135.135 4.95704C135.488 5.30369 135.768 5.71747 135.958 6.17385C136.147 6.63023 136.243 7.11991 136.239 7.61387C136.246 8.11464 136.152 8.61164 135.962 9.07541C135.772 9.53918 135.491 9.96028 135.135 10.3137C134.792 10.678 134.377 10.9669 133.915 11.162C133.454 11.3571 132.957 11.4539 132.456 11.4464ZM132.456 4.90189C131.734 4.90296 131.042 5.18907 130.532 5.69747C130.022 6.20587 129.735 6.89506 129.734 7.61387C129.725 7.97922 129.791 8.34255 129.928 8.68147C130.066 9.0204 130.271 9.32775 130.532 9.58463C130.784 9.83863 131.083 10.0403 131.413 10.178C131.744 10.3157 132.098 10.3866 132.456 10.3866C132.815 10.3866 133.169 10.3157 133.499 10.178C133.83 10.0403 134.129 9.83863 134.381 9.58463C134.64 9.32613 134.846 9.01874 134.985 8.68039C135.124 8.34204 135.194 7.97949 135.191 7.61387C135.195 7.25617 135.125 6.90156 134.985 6.57188C134.846 6.2422 134.64 5.94444 134.381 5.69692C134.131 5.44048 133.832 5.23763 133.501 5.10089C133.17 4.96415 132.814 4.89642 132.456 4.90189Z" fill="white"/>
<path d="M144.68 3.86917C144.753 3.86838 144.825 3.8824 144.893 3.91038C144.961 3.93836 145.022 3.97972 145.073 4.03194C145.125 4.08089 145.166 4.13994 145.194 4.20542C145.222 4.2709 145.237 4.34143 145.236 4.41264V10.9235C145.238 10.995 145.224 11.0659 145.196 11.1316C145.168 11.1973 145.126 11.2562 145.073 11.3042C144.97 11.4025 144.832 11.4574 144.69 11.4574C144.547 11.4574 144.41 11.4025 144.307 11.3042C144.254 11.2562 144.212 11.1973 144.183 11.1316C144.155 11.0659 144.142 10.995 144.143 10.9235V8.23309H143.028L141.213 11.1926C141.166 11.2747 141.097 11.3428 141.015 11.3901C140.932 11.4373 140.838 11.462 140.743 11.4616C140.643 11.4663 140.544 11.4395 140.46 11.385C140.396 11.3473 140.34 11.2969 140.297 11.237C140.253 11.177 140.223 11.1088 140.207 11.0365C140.188 10.9685 140.185 10.8972 140.196 10.8276C140.207 10.758 140.234 10.6916 140.273 10.633L141.804 8.14969C141.341 7.99429 140.934 7.70655 140.634 7.32237C140.341 6.95393 140.183 6.49697 140.185 6.02692C140.188 5.73888 140.249 5.45435 140.365 5.19052C140.481 4.92669 140.65 4.68907 140.861 4.49201C141.056 4.29429 141.29 4.13755 141.547 4.03104C141.804 3.92454 142.08 3.87041 142.359 3.87186L144.68 3.86917ZM144.139 7.14615V4.95746H142.401C142.254 4.95159 142.107 4.97565 141.97 5.02815C141.833 5.08066 141.708 5.16052 141.602 5.26283C141.394 5.46729 141.273 5.74378 141.263 6.03499C141.271 6.33005 141.392 6.61084 141.602 6.81926C141.706 6.92545 141.83 7.00929 141.967 7.06553C142.105 7.12177 142.252 7.14922 142.401 7.14615H144.139Z" fill="white"/>
<path d="M147.037 9.41034C147.057 9.55583 147.108 9.69558 147.185 9.82097C147.262 9.94637 147.363 10.0548 147.484 10.1395C147.739 10.3289 148.052 10.424 148.37 10.4085C148.692 10.4184 149.005 10.3053 149.245 10.0924C149.356 9.99823 149.444 9.88117 149.504 9.74941C149.565 9.61765 149.595 9.47438 149.594 9.32963C149.593 9.18067 149.562 9.03344 149.502 8.89696C149.442 8.76048 149.355 8.63763 149.245 8.53594C149.131 8.42143 148.995 8.33144 148.844 8.27152C148.693 8.2116 148.532 8.18302 148.37 8.18753C148.207 8.19146 148.048 8.13705 147.922 8.03417C147.869 7.98611 147.826 7.92724 147.798 7.86155C147.77 7.79586 147.756 7.72489 147.758 7.65347C147.757 7.5806 147.771 7.50833 147.8 7.44104C147.828 7.37374 147.869 7.31284 147.922 7.26201C148.048 7.15913 148.207 7.10472 148.37 7.10866C148.531 7.11481 148.692 7.08803 148.843 7.02996C148.993 6.9719 149.13 6.88377 149.245 6.771C149.356 6.66732 149.444 6.54221 149.504 6.40338C149.564 6.26456 149.594 6.11498 149.594 5.96387C149.595 5.81913 149.565 5.67588 149.504 5.54414C149.444 5.41239 149.356 5.29533 149.245 5.20112C149.005 4.98822 148.692 4.8751 148.37 4.88499C148.063 4.88757 147.763 4.97868 147.507 5.14731C147.279 5.27897 147.11 5.49347 147.037 5.74594C146.998 5.88872 146.914 6.01495 146.796 6.10511C146.736 6.15478 146.665 6.18878 146.589 6.20405C146.512 6.21932 146.433 6.21537 146.359 6.19255C145.988 6.12619 145.802 5.92261 145.801 5.58182C145.864 5.31893 145.978 5.07103 146.138 4.85239C146.297 4.63375 146.499 4.4487 146.73 4.30789C147.217 3.98711 147.791 3.82234 148.374 3.83572C149.005 3.82647 149.618 4.04321 150.102 4.44645C150.335 4.62669 150.523 4.85791 150.652 5.12221C150.781 5.38651 150.847 5.6768 150.845 5.97059C150.851 6.30186 150.774 6.62942 150.622 6.92386C150.469 7.2183 150.245 7.4704 149.971 7.65751C150.243 7.8442 150.465 8.0947 150.618 8.38698C150.77 8.67925 150.848 9.00435 150.845 9.33366C150.845 9.90852 150.597 10.4094 150.102 10.8363C149.627 11.2576 149.01 11.487 148.374 11.4793C147.758 11.4914 147.155 11.3024 146.657 10.9412C146.208 10.6132 145.903 10.1258 145.805 9.57984C145.805 9.23905 145.991 9.03233 146.363 8.95969C146.527 8.95867 146.687 9.00799 146.822 9.10094C146.88 9.13189 146.93 9.17608 146.967 9.22988C147.004 9.28367 147.028 9.34552 147.037 9.41034Z" fill="white"/>
<path d="M152.035 11.4464C151.964 11.4484 151.893 11.4358 151.828 11.4094C151.762 11.383 151.702 11.3434 151.653 11.2931C151.6 11.2422 151.559 11.1813 151.531 11.1141C151.502 11.0468 151.488 10.9745 151.489 10.9016V4.39071C151.486 4.31909 151.499 4.24766 151.527 4.18174C151.555 4.11583 151.598 4.05712 151.653 4.01001C151.701 3.95697 151.76 3.91487 151.826 3.88655C151.892 3.85824 151.963 3.84437 152.035 3.84589C152.107 3.84577 152.178 3.86026 152.244 3.88849C152.31 3.91671 152.369 3.95806 152.419 4.01001C152.473 4.05731 152.515 4.11604 152.544 4.18192C152.572 4.24779 152.585 4.31913 152.582 4.39071V7.08117C153.821 7.08117 154.444 7.08475 154.452 7.09193C155.023 7.14038 155.557 7.39542 155.952 7.80893C156.337 8.2017 156.549 8.73059 156.543 9.27927C156.535 9.84416 156.31 10.3845 155.913 10.7881C155.516 11.1917 154.978 11.4275 154.411 11.4464H152.035ZM152.575 8.16811V10.3568H154.314C154.461 10.3628 154.607 10.339 154.744 10.2867C154.882 10.2345 155.007 10.1548 155.112 10.0528C155.321 9.84801 155.442 9.57085 155.45 9.27927C155.443 8.98424 155.322 8.70323 155.112 8.495C155.009 8.38881 154.884 8.30497 154.747 8.24873C154.61 8.19249 154.462 8.16504 154.314 8.16811H152.575ZM156.872 4.34766C156.872 4.20495 156.929 4.06809 157.03 3.96717C157.132 3.86626 157.269 3.80957 157.413 3.80957C157.554 3.81377 157.69 3.86759 157.796 3.96158C157.891 4.06711 157.945 4.20237 157.949 4.34363V10.9231C157.951 10.9936 157.938 11.0637 157.912 11.1292C157.886 11.1946 157.846 11.2541 157.796 11.3038C157.747 11.3558 157.687 11.3971 157.621 11.4254C157.555 11.4536 157.484 11.4681 157.413 11.468C157.271 11.4629 157.136 11.4046 157.036 11.3048C156.936 11.2049 156.877 11.071 156.872 10.9299V4.34766Z" fill="white"/>
<path d="M160.444 8.14695L159.768 8.85454V10.945C159.77 11.0155 159.758 11.0856 159.732 11.1511C159.705 11.2166 159.666 11.276 159.616 11.3257C159.565 11.3782 159.504 11.4198 159.436 11.448C159.369 11.4762 159.296 11.4905 159.223 11.4898C159.151 11.49 159.08 11.4755 159.014 11.4473C158.948 11.419 158.888 11.3777 158.839 11.3257C158.789 11.276 158.749 11.2166 158.723 11.1511C158.697 11.0856 158.684 11.0155 158.686 10.945V4.35341C158.689 4.20862 158.743 4.06943 158.839 3.9606C158.945 3.86642 159.081 3.81257 159.223 3.80859C159.368 3.81475 159.506 3.87194 159.613 3.97002C159.709 4.07885 159.763 4.21803 159.766 4.36283V7.30888L162.794 4.08033C162.836 4.02428 162.888 3.97715 162.948 3.94178C163.008 3.90641 163.075 3.88353 163.144 3.87451C163.216 3.86214 163.289 3.86548 163.359 3.88431C163.429 3.90313 163.494 3.93698 163.549 3.98347C163.606 4.02424 163.654 4.07621 163.69 4.13615C163.726 4.19608 163.749 4.26271 163.757 4.33189C163.769 4.40303 163.766 4.47594 163.747 4.54559C163.728 4.61525 163.694 4.68002 163.648 4.73546L161.199 7.36L163.682 10.6033C163.731 10.6557 163.768 10.7177 163.791 10.7854C163.815 10.8531 163.823 10.9249 163.817 10.9961C163.798 11.1415 163.723 11.2741 163.609 11.3661C163.513 11.4434 163.393 11.4856 163.27 11.4858C163.19 11.4871 163.111 11.47 163.039 11.436C162.967 11.4019 162.903 11.3518 162.854 11.2894L160.444 8.14695Z" fill="white"/>
<path d="M168.163 9.94434H165.495L165.035 11.0542C164.984 11.3151 164.81 11.447 164.511 11.447H164.39C164.315 11.4189 164.247 11.3766 164.189 11.3224C164.131 11.2681 164.085 11.203 164.052 11.1308C163.979 11.0515 163.96 10.9169 163.997 10.7273L166.336 4.23922C166.364 4.1201 166.434 4.01488 166.533 3.94278C166.632 3.87067 166.754 3.83647 166.877 3.84642C166.995 3.83833 167.113 3.87378 167.208 3.94612C167.302 4.01846 167.367 4.12269 167.39 4.23922L169.609 10.7273C169.661 10.8569 169.661 11.0012 169.609 11.1308C169.545 11.2743 169.427 11.3875 169.281 11.447C169.143 11.4714 169.002 11.4521 168.876 11.3918C168.735 11.3176 168.623 11.1988 168.558 11.0542L168.163 9.94434ZM167.84 8.84394L166.878 6.05663L165.893 8.84394H167.84Z" fill="white"/>
<path d="M53.5883 15.4839C54.3988 13.6625 57.1505 13.7351 57.9204 15.5539C60.333 20.651 62.1607 26.0117 64.4639 31.1585C65.9026 31.4451 68.407 31.5298 68.2287 33.6136C68.4989 35.1323 66.9994 36.4386 65.527 36.2085C59.043 36.2475 52.5508 36.3175 46.0627 36.2166C44.1716 36.4264 42.8423 34.4422 43.4421 32.7378C44.1337 31.3213 45.8453 31.515 47.1286 31.1653C49.4101 25.9955 51.177 20.5971 53.5883 15.4839ZM52.4779 31.4034C54.6798 31.3953 56.8812 31.3953 59.0822 31.4034C58.0168 28.5918 56.9433 25.7826 55.8617 22.9755C54.5609 25.709 53.5261 28.5609 52.4779 31.4034Z" fill="#E6514A"/>
<path d="M69.7686 16.1688C69.8146 14.9312 70.8628 13.9787 72.0246 14.0272C72.5581 14.0597 73.0617 14.2839 73.4419 14.6582C73.822 15.0325 74.0528 15.5315 74.0913 16.0625C74.0805 20.1421 74.0688 24.2226 74.0562 28.3041C76.1815 25.8342 78.3141 23.3137 80.4538 20.7425C81.9577 18.931 83.4392 17.1284 84.8981 15.3347C85.1348 15.0105 85.4412 14.743 85.795 14.5518C86.5123 14.1657 87.5444 14.042 88.1928 14.4872C88.9709 15.0253 89.0222 16.1836 89.0384 16.7069C89.1127 19.1 89.1276 25.6943 89.0141 34.5634C88.6305 35.7526 87.4809 36.5005 86.3124 36.3714C85.8064 36.3061 85.3314 36.092 84.9481 35.7565C84.5648 35.4211 84.2906 34.9795 84.1605 34.4881C84.1119 30.9394 84.0637 27.3902 84.016 23.8406L78.0088 30.2385C76.3756 32.099 74.9451 33.6487 73.7942 34.8876C73.5321 35.1701 72.8026 35.9221 71.8125 36.0983C71.5828 36.14 70.8399 36.2718 70.2941 35.8575C70.2382 35.8185 70.185 35.7758 70.1347 35.7297C69.7038 35.3262 69.6741 34.741 69.6606 34.5029C69.6214 33.7912 69.6511 26.3548 69.7686 16.1688Z" fill="#E6514A"/>
<path d="M96.7395 16.6531C97.4393 14.8492 99.2602 13.1757 101.332 13.8726C103.629 14.8869 104.169 17.5598 105.058 19.657C106.653 24.3438 108.84 28.8449 110.091 33.6474C110.596 35.5388 108.335 36.8477 106.714 36.1576C105.22 35.2052 105.034 33.3071 104.403 31.8044C101.688 31.7964 98.9806 31.8044 96.2735 31.7816C95.7683 33.0286 95.3874 34.3537 94.6525 35.4917C93.6178 36.7697 91.2997 36.615 90.5527 35.1124C90.3109 32.9425 91.3456 30.9287 92.0535 28.9458C93.6785 24.8658 95.0294 20.6902 96.7395 16.6531ZM97.5717 27.2428C99.3845 27.2428 101.2 27.2401 103.017 27.2347C102.071 24.5241 101.236 21.7812 100.396 19.0382C99.3764 21.7435 98.4983 24.4931 97.5717 27.2428Z" fill="#E6514A"/>
<path d="M117.625 17.6369C117.98 16.5876 118.857 13.9967 120.439 13.7935C120.718 13.7625 121.001 13.7956 121.265 13.8904C123.057 14.4689 123.783 16.9481 123.913 17.4136L130.369 33.6357C130.471 34.1861 130.378 34.7551 130.103 35.2438C129.829 35.7326 129.392 36.1104 128.867 36.3118C128.343 36.5132 127.764 36.5255 127.231 36.3466C126.698 36.1676 126.245 35.8087 125.95 35.332L120.925 22.9559L116.602 34.4993C116.258 35.6199 115.387 36.4257 114.367 36.5454C114.174 36.5683 112.977 36.6799 112.326 35.7719C111.735 34.9432 112.084 33.9585 112.119 33.8617C114.553 26.553 116.508 20.9058 117.625 17.6369Z" fill="#E6514A"/>
<path d="M138.111 14.616C142.085 13.182 147.048 13.6394 150.168 16.6836C153.863 20.3332 154.127 26.3692 152.238 30.943C148.996 38.4346 136.703 38.6202 133.038 31.4165C130.176 25.7397 131.567 17.0643 138.111 14.616ZM139.713 19.1709C136.523 21.4874 136.236 26.3006 137.985 29.583C139.634 32.7671 144.723 33.0227 146.714 30.0713C148.558 27.3284 148.558 23.4931 146.869 20.6735C145.469 18.2952 141.969 17.714 139.713 19.1709Z" fill="#E6514A"/>
<path d="M156.787 14.6931L168.121 14.5586C169.257 14.8922 170.019 15.9038 170 16.9423C169.977 18.227 168.784 19.3826 167.276 19.3315L159.79 19.3449L159.697 34.4115C159.63 35.0016 159.348 35.5467 158.904 35.943C158.46 36.3394 157.885 36.5594 157.288 36.5612C156.692 36.5631 156.116 36.3466 155.669 35.9529C155.223 35.5593 154.937 35.016 154.866 34.4263C154.825 29.2588 154.784 24.0918 154.742 18.9252C154.707 18.7355 154.321 16.3975 155.802 15.207C156.093 14.9718 156.428 14.7971 156.787 14.6931Z" fill="#E6514A"/>
<path d="M25.9771 14.9796C29.8536 14.9796 32.9961 11.8502 32.9961 7.98981C32.9961 4.12944 29.8536 1 25.9771 1C22.1006 1 18.9581 4.12944 18.9581 7.98981C18.9581 11.8502 22.1006 14.9796 25.9771 14.9796Z" stroke="white" stroke-width="0.83" stroke-miterlimit="10"/>
<path d="M29.4433 10.1182C28.5092 10.9214 27.3221 11.3733 26.0882 11.3954C24.8543 11.4175 23.6516 11.0084 22.6891 10.2392" stroke="white" stroke-width="0.83" stroke-miterlimit="10" stroke-linecap="round"/>
<path d="M23.671 6.40951C23.671 6.56306 23.5454 6.69108 23.3862 6.69108C23.2269 6.69108 23.1013 6.56306 23.1013 6.40951C23.1013 6.25596 23.2269 6.12793 23.3862 6.12793C23.5454 6.12793 23.671 6.25596 23.671 6.40951Z" fill="white" stroke="white"/>
<path d="M29.1852 6.40951C29.1852 6.56306 29.0596 6.69108 28.9003 6.69108C28.741 6.69108 28.6155 6.56306 28.6155 6.40951C28.6155 6.25596 28.741 6.12793 28.9003 6.12793C29.0596 6.12793 29.1852 6.25595 29.1852 6.40951Z" fill="white" stroke="white"/>
<path d="M10.6923 18.3126C14.5688 18.3126 17.7113 15.1832 17.7113 11.3228C17.7113 7.46245 14.5688 4.33301 10.6923 4.33301C6.81584 4.33301 3.67334 7.46245 3.67334 11.3228C3.67334 15.1832 6.81584 18.3126 10.6923 18.3126Z" stroke="white" stroke-width="0.83" stroke-miterlimit="10"/>
<path d="M14.16 13.4531C13.2254 14.2554 12.0383 14.7066 10.8046 14.7285C9.5709 14.7503 8.36843 14.3415 7.40576 13.5729" stroke="white" stroke-width="0.83" stroke-miterlimit="10" stroke-linecap="round"/>
<path d="M8.38621 9.74252C8.38621 9.89607 8.26064 10.0241 8.10137 10.0241C7.94209 10.0241 7.81653 9.89607 7.81653 9.74252C7.81653 9.58897 7.94209 9.46094 8.10137 9.46094C8.26064 9.46094 8.38621 9.58896 8.38621 9.74252Z" fill="white" stroke="white"/>
<path d="M13.9004 9.74252C13.9004 9.89607 13.7748 10.0241 13.6155 10.0241C13.4563 10.0241 13.3307 9.89607 13.3307 9.74252C13.3307 9.58896 13.4563 9.46094 13.6155 9.46094C13.7748 9.46094 13.9004 9.58896 13.9004 9.74252Z" fill="white" stroke="white"/>
<path d="M35.6707 27.2304C35.6707 21.6907 30.9212 16.973 30.1079 15.9062C29.0273 17.2421 26.9321 17.5205 25.9771 17.5716C25.022 17.5165 22.9269 17.2421 21.8476 15.9062C21.037 16.973 16.2848 21.6907 16.2848 27.2304C16.2848 31.2566 18.6663 35.6367 25.48 36.0241V36.0551C25.6502 36.0551 25.8136 36.0551 25.9771 36.0457C26.1405 36.0362 26.3053 36.0551 26.4742 36.0551V36.0241C33.2959 35.6367 35.6707 31.2566 35.6707 27.2304Z" fill="white"/>
<path d="M35.6707 27.279C35.6707 25.4549 35.3532 24.3087 34.6332 22.7631C33.1662 19.6166 18.5582 19.9179 17.0912 22.8384C16.2591 24.493 16.2807 25.2746 16.2807 27.2777C16.2807 31.3039 18.6622 35.6827 25.4759 36.0714V36.1024C25.6461 36.1024 25.8095 36.1024 25.973 36.093C26.1364 36.0835 26.3012 36.1024 26.4701 36.1024V36.0714C33.2959 35.684 35.6707 31.3053 35.6707 27.279Z" fill="#3035C4"/>
<path d="M16.3361 28.3079C17.3397 31.5728 19.2444 35.7174 25.4799 36.0726V36.1035C25.6501 36.1035 25.8136 36.1035 25.977 36.0941C26.1405 36.0847 26.3053 36.1035 26.4741 36.1035V36.0726C32.7069 35.7174 35.5666 31.0172 35.618 28.9025C33.5296 26.3197 21.0194 26.3197 16.3361 28.3079Z" fill="#E6514A"/>
<path opacity="0.33" d="M26.0608 33.6867C21.9138 33.2724 18.8501 29.9766 19.2188 26.327C18.4435 26.1924 18.1179 26.7991 17.7127 26.931C17.3439 30.5806 20.4143 33.8764 24.5547 34.2907C26.1605 34.4609 27.7811 34.1544 29.2124 33.4096C28.1891 33.7007 27.1195 33.7948 26.0608 33.6867Z" fill="white"/>
<path d="M35.6707 27.2304C35.6707 21.6907 30.9212 16.973 30.1079 15.9062C29.0273 17.2421 26.9321 17.5205 25.9771 17.5716C25.022 17.5165 22.9269 17.2421 21.8476 15.9062C21.037 16.973 16.2848 21.6907 16.2848 27.2304C16.2848 31.2566 18.6663 35.6367 25.48 36.0241V36.0551C25.6502 36.0551 25.8136 36.0551 25.9771 36.0457C26.1405 36.0362 26.3053 36.0551 26.4742 36.0551V36.0241C33.2959 35.6367 35.6707 31.2566 35.6707 27.2304Z" stroke="white" stroke-width="0.83" stroke-linejoin="round"/>
<path d="M20.3859 30.1767C20.3859 24.637 15.6364 19.9193 14.8232 18.8525C13.7425 20.1884 11.6473 20.4668 10.6923 20.5166C9.73724 20.4628 7.64209 20.1884 6.56276 18.8525C5.75226 19.9193 1 24.637 1 30.1767C1 34.2016 3.38153 38.5817 10.1965 38.9691V39C10.3654 39 10.5288 39 10.6923 38.9906C10.8557 38.9812 11.0205 39 11.1894 39V38.9691C18.0044 38.5817 20.3859 34.2016 20.3859 30.1767Z" fill="#E6514A" stroke="white" stroke-width="0.83" stroke-linejoin="round"/>
<path fill-rule="evenodd" clip-rule="evenodd" d="M10.9989 28.3135L11.6217 29.1394L12.6024 28.8058L12.0053 29.6506L12.628 30.4766L11.6365 30.1726L11.0395 31.0174L11.0246 29.9842L10.0331 29.6802L11.0151 29.3466L10.9989 28.3135Z" fill="white"/>
<path d="M10.1141 33.478C9.11743 33.478 8.16156 33.0838 7.45679 32.3819C6.75202 31.6801 6.35608 30.7282 6.35608 29.7356C6.35608 28.7431 6.75202 27.7912 7.45679 27.0893C8.16156 26.3875 9.11743 25.9932 10.1141 25.9932C10.5227 25.9934 10.9284 26.0607 11.315 26.1923C10.6107 25.744 9.79266 25.5049 8.95677 25.5029C8.12087 25.501 7.30173 25.7363 6.59529 26.1813C5.88884 26.6262 5.32435 27.2625 4.96795 28.0154C4.61154 28.7684 4.47797 29.6069 4.58288 30.4327C4.68779 31.2586 5.02685 32.0375 5.56032 32.6784C6.0938 33.3192 6.79961 33.7954 7.59507 34.0512C8.39054 34.307 9.24271 34.3317 10.0518 34.1225C10.8609 33.9133 11.5933 33.4788 12.1634 32.87C11.554 33.2665 10.842 33.4778 10.1141 33.478Z" fill="white"/>
</svg>
