<svg version="1.0" xmlns="http://www.w3.org/2000/svg"
 width="20.000000pt" height="20.000000pt" viewBox="0 0 20.000000 20.000000"
 preserveAspectRatio="xMidYMid meet">

<g transform="translate(0.000000,32.000000) scale(0.100000,-0.100000)"
fill="#000000" stroke="none">
<path d="M7 274 c-20 -20 6 -24 154 -24 124 0 160 3 157 13 -4 9 -45 13 -154
15 -83 1 -153 -1 -157 -4z"/>
<path d="M0 160 c0 -6 60 -10 160 -10 100 0 160 4 160 10 0 6 -60 10 -160 10
-100 0 -160 -4 -160 -10z"/>
<path d="M3 58 c3 -10 43 -13 157 -13 114 0 154 3 158 13 3 9 -33 12 -158 12
-125 0 -161 -3 -157 -12z"/>
</g>
</svg>
